<svg xmlns="http://www.w3.org/2000/svg" viewBox="0 0 100 100"><defs><style>.cls-1{fill:none}.cls-2{fill:#fff}.cls-3{clip-path:url(#clip-path)}.cls-4{fill:#823806}.cls-5{fill:#6d2d01}.cls-6{fill:#229947}.cls-7{fill:#0f844f}.cls-8{fill:#9eb7b7}.cls-9{fill:#bddbda}.cls-10{fill:#849998}.cls-11{fill:url(#linear-gradient)}.cls-12{fill:url(#linear-gradient-2)}.cls-13{fill:#ff5a5a}.cls-14{fill:#4fc64f}</style><clipPath id="clip-path"><path class="cls-1" d="M91.62 19.51v61A11.12 11.12 0 0 1 80.5 91.63h-61a10.9 10.9 0 0 1-5-1.18 11.13 11.13 0 0 1-6.12-9.95v-61A11.12 11.12 0 0 1 19.5 8.38h61a11.12 11.12 0 0 1 11.12 11.13z"/></clipPath><linearGradient id="linear-gradient" x1="-415.27" y1="1043.71" x2="-415.27" y2="1060.63" gradientTransform="rotate(45 1060.114 1124.314)" gradientUnits="userSpaceOnUse"><stop offset="0" stop-color="#f7314e"/><stop offset="1" stop-color="#f7314e" stop-opacity=".3"/></linearGradient><linearGradient id="linear-gradient-2" x1="-423.27" y1="1044.48" x2="-423.27" y2="1059.61" gradientTransform="rotate(45 1060.114 1124.314)" gradientUnits="userSpaceOnUse"><stop offset="0" stop-color="#ff5a5a"/><stop offset="1" stop-color="#ff5a5a" stop-opacity=".2"/></linearGradient></defs><title>brush_translucent</title><g id="Tools"><g id="tool--translucent-brush"><g id="tool--translucent-brush-2" data-name="tool--translucent-brush"><path class="cls-2" d="M91.62 19.51v61A11.12 11.12 0 0 1 80.5 91.63h-61a10.9 10.9 0 0 1-5-1.18 11.13 11.13 0 0 1-6.12-9.95v-61A11.12 11.12 0 0 1 19.5 8.38h61a11.12 11.12 0 0 1 11.12 11.13z"/><g class="cls-3"><path class="cls-4" d="M70.62 43.09c-4.75 4.71-9.57 9-11.87 9.49L45.57 39.39a8.88 8.88 0 0 1 1.6-3.2c.18-.28.38-.55.59-.83a84.48 84.48 0 0 1 7-8c.43-.46.89-.92 1.34-1.38l.16-.16c2.35-2.38 4.78-4.76 7-6.91L66 16.17l15.64 15.61c-.53.53-1.17 1.19-1.88 1.92-2.38 2.48-5.76 6.04-9.14 9.39z"/><path class="cls-5" d="M70.62 43.09c-4.75 4.71-9.57 9-11.87 9.49L45.57 39.39a8.88 8.88 0 0 1 1.6-3.2l11.9 11.9a1.26 1.26 0 0 0 1.62.15C65.18 45 76.75 32.66 79.63 29.77l2 2c-.53.53-1.17 1.19-1.88 1.92-2.37 2.49-5.75 6.05-9.13 9.4z"/><path class="cls-6" d="M26.6 81.44l-84.47 78.19a2.19 2.19 0 0 1-1.55.6 2.11 2.11 0 0 1-.75-.15 2.14 2.14 0 0 1-.79-.5 2.22 2.22 0 0 1-.04-3.08l77.84-84.82z"/><path class="cls-7" d="M26.6 81.44l-84.47 78.19a2.19 2.19 0 0 1-1.55.6 2.11 2.11 0 0 1-.75-.15l83.51-81 2 1.06z"/><path class="cls-8" d="M59.11 54.17l-8.35 7.41-22.47 20a2.26 2.26 0 0 1-.3.21 1.89 1.89 0 0 1-2.29-.29l-9-9a1.89 1.89 0 0 1-.08-2.59L35 49.21l.36-.4L44 39a1.9 1.9 0 0 1 2.76-.09L59.2 51.42a1.88 1.88 0 0 1-.09 2.75z"/><path class="cls-9" d="M56.49 53l-6.4 5.71a.54.54 0 0 1-.74 0l-6.09-6.09-2.73-2.75-.92-.92a.54.54 0 0 1 0-.74l5.6-6.49a.54.54 0 0 1 .79 0l10.51 10.45a.54.54 0 0 1-.02.83z"/><path class="cls-10" d="M50.57 61.75l-22.28 19.8a2.26 2.26 0 0 1-.3.21 1.89 1.89 0 0 1-2.29-.29l-1.25-1.25 17.78-16.3A1.11 1.11 0 0 0 41.6 62l-3.78-.4a1.08 1.08 0 0 1-1-1.09l-.13-9.27a.51.51 0 0 1 .16-.37.53.53 0 0 1 .76 0l10.8 10.79a1.48 1.48 0 0 0 2.16.09z"/><path class="cls-9" d="M17.41 73.18l16.12-18a.65.65 0 0 1 1.13.44v2.1a2.37 2.37 0 0 1-.66 1.55l-14.48 16z"/><path class="cls-11" d="M70.62 43.09c-2 .24-3.42-.87-3.16-3.06a2.82 2.82 0 0 0-3.18-3.28c-2 .24-3.42-.87-3.16-3.06a2.82 2.82 0 0 0-3.18-3.28c-2 .24-3.41-.85-3.16-3 .43-.46.89-.92 1.34-1.38l.16-.16c2.41-2.41 4.81-4.76 7-6.91L66 16.17l15.64 15.61c-.53.53-1.17 1.19-1.88 1.92-2.38 2.45-5.66 5.88-9.14 9.39z"/><path class="cls-12" d="M67.05 18.35L56.36 29c.62.62 1.8.24 2.35 0l9.54-9.54z"/><path class="cls-13" transform="rotate(-45 73.373 24.438)" d="M72.73 13.4h1.3v22.07h-1.3z"/><path class="cls-14" d="M16.85 74.93l1.92 1.92-76.21 78.42-.46-.46 74.75-79.88z"/></g></g></g></g></svg>