<svg xmlns="http://www.w3.org/2000/svg" viewBox="0 0 100 100"><defs><style>.cls-1{fill:none}.cls-2{fill:#fff}.cls-3{clip-path:url(#clip-path)}.cls-4{fill:#a5172c}.cls-5{fill:#ffb24d}.cls-14,.cls-6{fill:#f29440}.cls-7{fill:#d36033}.cls-8{fill:#a3a3a3}.cls-9{fill:#ccc}.cls-10{opacity:.35}.cls-11{fill:#e23b3b}.cls-12{fill:#c1272d}.cls-13{fill:#ffcb6e}.cls-14{opacity:.5}</style><clipPath id="clip-path"><path class="cls-1" d="M91.62 19.51v61A11.12 11.12 0 0 1 80.5 91.63h-61a10.9 10.9 0 0 1-5-1.18 11.13 11.13 0 0 1-6.12-9.95v-61A11.12 11.12 0 0 1 19.5 8.38h61a11.12 11.12 0 0 1 11.12 11.13z"/></clipPath></defs><title>brush_roller</title><g id="Tools"><g id="tool--roller"><g id="tool--roller-2" data-name="tool--roller"><path class="cls-2" d="M91.62 19.51v61A11.12 11.12 0 0 1 80.5 91.63h-61a10.9 10.9 0 0 1-5-1.18 11.13 11.13 0 0 1-6.12-9.95v-61A11.12 11.12 0 0 1 19.5 8.38h61a11.12 11.12 0 0 1 11.12 11.13z"/><g class="cls-3"><path class="cls-4" d="M3.52 103.92a7.34 7.34 0 0 1-10.38 0 7.34 7.34 0 0 1 0-10.38l30-26.93 7.33 7.33z"/><path class="cls-5" d="M87.65 54.95c-1.13-1.13-3.54-.74-6.33.81a25.08 25.08 0 0 0-3.24 2.17 31.77 31.77 0 0 0-2.65 2.38 25.81 25.81 0 0 0-5.12 7c-1.06 2.32-1.23 4.26-.25 5.24L28.42 30.89c-1.06-1-1.22-3.07-.15-5.65a22.84 22.84 0 0 1 5.05-7A29 29 0 0 1 36 15.83a19.57 19.57 0 0 1 3.24-2.16C42.37 12 44.8 12.09 46 13.3z"/><ellipse class="cls-6" cx="78.85" cy="63.73" rx="12.44" ry="4.85" transform="rotate(-45 78.848 63.73)"/><ellipse class="cls-7" cx="78.85" cy="63.73" rx="5.39" ry="1.62" transform="rotate(-45 78.848 63.73)"/><path class="cls-8" d="M80 64.25l2.9 2.85a3.4 3.4 0 0 1 .65.92 3.4 3.4 0 0 0-1-2.29l-2.85-2.85a1.21 1.21 0 1 0-1.7 1.71l.07.07a1.23 1.23 0 0 1 .27-.41 1.21 1.21 0 0 1 1.66 0z"/><path class="cls-9" d="M36.83 60.23a4.26 4.26 0 0 1 4.93-.65l30.67 17.65a1.83 1.83 0 0 0 2-.26l6.75-6.75a1 1 0 0 0 0-1.4l-.18-.19a1 1 0 0 1-.16.21l-6.74 6.75a1.83 1.83 0 0 1-2 .27L41.41 58.2a4.25 4.25 0 0 0-4.93.65L29 66.29A1.21 1.21 0 0 0 29 68l.07.07a1.2 1.2 0 0 1 .27-.41z"/><path class="cls-8" d="M30.76 68l7.44-7.44a1.84 1.84 0 0 1 2-.26L70.88 78a4.25 4.25 0 0 0 4.93-.65l6.75-6.75a3.4 3.4 0 0 0 1-2.53 3.4 3.4 0 0 0-.65-.92L80 64.25a1.21 1.21 0 0 0-1.71 0 1.23 1.23 0 0 0-.27.41l2.78 2.78a1 1 0 0 1 .2 1.19l.18.18a1 1 0 0 1 0 1.4L74.44 77a1.83 1.83 0 0 1-2 .26L41.75 59.57a4.26 4.26 0 0 0-4.93.65l-7.44 7.44a1.2 1.2 0 0 0-.27.41 1.21 1.21 0 0 0 1.65-.07z"/><g class="cls-10"><path class="cls-11" d="M-5.48 98a1 1 0 0 1-.75-.32 1 1 0 0 1 0-1.46L23.41 68a1 1 0 1 1 1.43 1.5L-4.77 97.74a1 1 0 0 1-.71.26z"/></g><rect class="cls-12" x="24.98" y="59.79" width="5.87" height="18.69" rx="2.64" ry="2.64" transform="rotate(-45 27.917 69.136)"/><path class="cls-11" d="M33.45 72.73a.83.83 0 0 1-1.17 0l-9.19-9.19a.83.83 0 0 1 0-1.17.83.83 0 0 1 1.17 0l9.19 9.19a.83.83 0 0 1 0 1.17z"/><path class="cls-13" d="M81.32 55.76a23.61 23.61 0 0 0-3.24 2.17L36 15.82a20.28 20.28 0 0 1 3.25-2.16z"/><path class="cls-14" d="M70.06 72.53L28.42 30.89c-1.06-1-1.22-3.07-.15-5.65l42 42c-1.02 2.37-1.19 4.31-.21 5.29z"/></g></g></g></g></svg>