<svg xmlns="http://www.w3.org/2000/svg" viewBox="0 0 100 100"><defs><style>.cls-1,.cls-18{fill:none}.cls-2{fill:#fff}.cls-3{clip-path:url(#clip-path)}.cls-4{fill:#823806}.cls-5{fill:#6d2d01}.cls-6{fill:#a422b2}.cls-7{fill:#9eb7b7}.cls-8{fill:#f29f0c}.cls-9{fill:#bddbda}.cls-10{fill:#ffdd36}.cls-11{fill:#e551c9}.cls-12{fill:#849998}.cls-13{fill:#e26905}.cls-14{fill:#822296}.cls-15{clip-path:url(#clip-path-2)}.cls-16{clip-path:url(#clip-path-3)}.cls-17{clip-path:url(#clip-path-4)}.cls-18{stroke:#2d3b3f;stroke-linecap:round;stroke-linejoin:round}.cls-19{clip-path:url(#clip-path-5)}.cls-20{fill:#00adad}.cls-21{fill:#3cd3cf}.cls-22{fill:#00938f}</style><clipPath id="clip-path"><path class="cls-1" d="M50 18.17h31.83V50H50z"/></clipPath><clipPath id="clip-path-2"><path class="cls-1" transform="rotate(-180 34.085 34.085)" d="M18.17 18.17H50V50H18.17z"/></clipPath><clipPath id="clip-path-3"><path class="cls-1" d="M50 50h31.83v31.83H50z"/></clipPath><clipPath id="clip-path-4"><path class="cls-1" transform="rotate(180 34.085 65.915)" d="M18.17 50H50v31.83H18.17z"/></clipPath><clipPath id="clip-path-5"><path class="cls-1" d="M221.62-110.49v61a11.12 11.12 0 0 1-11.12 11.12h-61a10.9 10.9 0 0 1-5-1.18 11 11 0 0 1-5-5.11 11.09 11.09 0 0 1-1.11-4.84v-61a11.12 11.12 0 0 1 11.12-11.13h61a11.12 11.12 0 0 1 11.11 11.14z"/></clipPath></defs><title>brush_mirror</title><g id="Tools"><g id="tool--mirror-brush"><path class="cls-2" d="M91.62 19.51v61A11.12 11.12 0 0 1 80.5 91.63h-61a10.9 10.9 0 0 1-5-1.18 11.13 11.13 0 0 1-6.12-9.95v-61A11.12 11.12 0 0 1 19.5 8.38h61a11.12 11.12 0 0 1 11.12 11.13z"/><g class="cls-3"><path class="cls-4" d="M78.78 27.22a6.35 6.35 0 0 0-5.38 4.25 14.33 14.33 0 0 1-1.28 2.41c-2.11 3.19-5.23 5.05-7.82 4.86l-.52-.06a4.64 4.64 0 0 1-.78-.18 2.63 2.63 0 0 1-2-2.68v-.12a10.46 10.46 0 0 1 3.7-7 9.26 9.26 0 0 1 .74-.56c4-2.75 10.19-3.13 13.15-1z"/><path class="cls-5" d="M72.12 33.88c-2.11 3.19-5.23 5.05-7.82 4.86l-.52-.06-.46-.62a14.57 14.57 0 0 0 7.39-5.79c.04 1.23.76 1.73 1.41 1.61z"/><path class="cls-6" d="M55.75 48c-6.39 7.36-22.66 21-30.87 28.32a.85.85 0 0 1-1.21-.07.84.84 0 0 1 0-1.06C28.75 69.11 44.13 50.54 51.75 44l3.14 3.13.43.43z"/><path class="cls-7" d="M63.78 38.68a.42.42 0 0 1-.09.32l-7.23 9a.45.45 0 0 1-.68 0l-.65-.64-.22-.22L51.75 44a.45.45 0 0 1 0-.67l8.82-7.45a.45.45 0 0 1 .6 0l2.11 2.11.34.34.07.09a.44.44 0 0 1 .09.26z"/><path class="cls-8" d="M78.89 27.5c-2.06.39-4 1.56-5.87 5.6a1.34 1.34 0 0 1-.9.78c-.65.14-1.37-.38-1.42-1.62-.08-1.78-1.92-2.25-3.24-1.66a1.88 1.88 0 0 1-2.8-1.95 2.34 2.34 0 0 1 1-1.4c2.05-1.48 8.48-3.52 13-.62l.36.24a.35.35 0 0 1-.13.63z"/><path class="cls-9" d="M61.16 36.37l-9 8.08 1.06 1.06 8.54-8.54-.6-.6z"/><path class="cls-10" d="M66 27.87c1.58-1.45 6-2.51 9.43-1.93a.26.26 0 0 1 0 .51 14.85 14.85 0 0 0-7.91 2.74c-1.33 1.12-2.59-.3-1.52-1.32z"/><path class="cls-11" d="M51.94 45c-2.2 2.29-22 22.75-26.88 29.38C30.88 68.44 51.82 47.17 53 46z"/><path class="cls-12" d="M63.78 38.68a.42.42 0 0 1-.09.32l-7.23 9a.45.45 0 0 1-.68 0l-.65-.64c1.6-1.91 8.13-9.23 8.2-9.34l.34.34.07.09z"/><path class="cls-13" d="M78.89 27.5c-2.06.39-4 1.56-5.87 5.6a1.34 1.34 0 0 1-.9.78c-.65.14-1.37-.38-1.42-1.62.09.6 1.18.71 1.66-.15a17 17 0 0 1 2.79-3.8 6 6 0 0 1 3.31-1.25h.1a.23.23 0 0 0 .11-.42l.36.24a.35.35 0 0 1-.14.62z"/><path class="cls-14" d="M55.75 48c-6.39 7.36-22.66 21-30.87 28.32a.85.85 0 0 1-1.21-.07C27 73.72 53.1 49.51 54.89 47.18l.43.43z"/></g><g class="cls-15"><path class="cls-4" d="M21.22 27.22a6.35 6.35 0 0 1 5.38 4.25 14.33 14.33 0 0 0 1.28 2.41c2.11 3.19 5.23 5.05 7.82 4.86l.52-.06a4.64 4.64 0 0 0 .78-.18 2.63 2.63 0 0 0 2-2.68v-.12a10.46 10.46 0 0 0-3.7-7 9.26 9.26 0 0 0-.74-.56c-4-2.75-10.19-3.13-13.15-1z"/><path class="cls-5" d="M27.88 33.88c2.11 3.19 5.23 5.05 7.82 4.86l.52-.06.46-.62a14.57 14.57 0 0 1-7.39-5.79c-.04 1.23-.76 1.73-1.41 1.61z"/><path class="cls-6" d="M44.25 48c6.39 7.36 22.66 21 30.87 28.32a.85.85 0 0 0 1.21-.07.84.84 0 0 0 0-1.06C71.25 69.11 55.87 50.54 48.25 44l-3.14 3.13-.43.43z"/><path class="cls-7" d="M36.22 38.68a.42.42 0 0 0 .09.32l7.23 9a.45.45 0 0 0 .68 0l.65-.64.22-.22L48.25 44a.45.45 0 0 0 0-.67l-8.85-7.42a.45.45 0 0 0-.6 0l-2.11 2.11-.34.34-.07.09a.44.44 0 0 0-.06.23z"/><path class="cls-8" d="M21.11 27.5c2.06.39 4 1.56 5.87 5.6a1.34 1.34 0 0 0 .9.78c.65.14 1.37-.38 1.42-1.62.08-1.78 1.92-2.25 3.24-1.66a1.88 1.88 0 0 0 2.8-1.95 2.34 2.34 0 0 0-1-1.4c-2.05-1.48-8.48-3.52-13-.62l-.36.24a.35.35 0 0 0 .13.63z"/><path class="cls-9" d="M38.84 36.37l9 8.08-1.06 1.06-8.54-8.54.6-.6z"/><path class="cls-10" d="M34 27.87c-1.58-1.45-6-2.51-9.43-1.93a.26.26 0 0 0 0 .51 14.85 14.85 0 0 1 7.91 2.74c1.33 1.12 2.59-.3 1.52-1.32z"/><path class="cls-11" d="M48.06 45c2.2 2.29 22 22.75 26.88 29.38C69.12 68.44 48.18 47.17 47 46z"/><path class="cls-12" d="M36.22 38.68a.42.42 0 0 0 .09.32l7.23 9a.45.45 0 0 0 .68 0l.65-.64c-1.6-1.91-8.13-9.23-8.2-9.34l-.34.34-.07.09z"/><path class="cls-13" d="M21.11 27.5c2.06.39 4 1.56 5.87 5.6a1.34 1.34 0 0 0 .9.78c.65.14 1.37-.38 1.42-1.62-.09.6-1.18.71-1.66-.15a17 17 0 0 0-2.79-3.8 6 6 0 0 0-3.31-1.25h-.1a.23.23 0 0 1-.11-.42l-.36.24a.35.35 0 0 0 .14.62z"/><path class="cls-14" d="M44.25 48c6.39 7.36 22.66 21 30.87 28.32a.85.85 0 0 0 1.21-.07C73 73.72 46.9 49.51 45.11 47.18l-.43.43z"/></g><g class="cls-16"><path class="cls-4" d="M78.78 72.78a6.35 6.35 0 0 1-5.38-4.25 14.33 14.33 0 0 0-1.28-2.41c-2.11-3.19-5.23-5.05-7.82-4.86l-.52.06a4.64 4.64 0 0 0-.78.17 2.63 2.63 0 0 0-2 2.68v.12a10.46 10.46 0 0 0 3.7 7 9.26 9.26 0 0 0 .74.56c4 2.75 10.19 3.13 13.15 1z"/><path class="cls-5" d="M72.12 66.12c-2.11-3.19-5.23-5.05-7.82-4.86l-.52.06-.46.62a14.57 14.57 0 0 1 7.39 5.79c.04-1.23.76-1.73 1.41-1.61z"/><path class="cls-6" d="M55.75 52c-6.39-7.36-22.66-21-30.87-28.32a.85.85 0 0 0-1.21.07.84.84 0 0 0 0 1.06C28.75 30.89 44.13 49.46 51.75 56l3.14-3.13.43-.43z"/><path class="cls-7" d="M63.78 61.32a.42.42 0 0 0-.09-.32l-7.23-9a.45.45 0 0 0-.68 0l-.65.64-.22.22L51.75 56a.45.45 0 0 0 0 .67l8.82 7.45a.45.45 0 0 0 .6 0l2.11-2.11.34-.34.07-.09a.44.44 0 0 0 .09-.26z"/><path class="cls-8" d="M78.89 72.5c-2.06-.39-4-1.56-5.87-5.6a1.34 1.34 0 0 0-.9-.78c-.65-.14-1.37.38-1.42 1.62-.08 1.78-1.92 2.25-3.24 1.66a1.88 1.88 0 0 0-2.8 1.95 2.34 2.34 0 0 0 1 1.4c2.05 1.48 8.48 3.52 13 .62l.36-.24a.35.35 0 0 0-.13-.63z"/><path class="cls-9" d="M61.16 63.63l-9-8.08 1.06-1.06 8.54 8.54-.6.6z"/><path class="cls-10" d="M66 72.13c1.58 1.45 6 2.51 9.43 1.93a.26.26 0 0 0 0-.51 14.85 14.85 0 0 1-7.91-2.74c-1.33-1.12-2.59.3-1.52 1.32z"/><path class="cls-11" d="M51.94 55c-2.2-2.29-22-22.75-26.88-29.38C30.88 31.56 51.82 52.83 53 54z"/><path class="cls-12" d="M63.78 61.32a.42.42 0 0 0-.09-.32l-7.23-9a.45.45 0 0 0-.68 0l-.65.64c1.6 1.91 8.13 9.23 8.2 9.34l.34-.34.07-.09z"/><path class="cls-13" d="M78.89 72.5c-2.06-.39-4-1.56-5.87-5.6a1.34 1.34 0 0 0-.9-.78c-.65-.14-1.37.38-1.42 1.62.09-.6 1.18-.71 1.66.15a17 17 0 0 0 2.79 3.8 6 6 0 0 0 3.31 1.25h.1a.23.23 0 0 1 .11.42l.36-.24a.35.35 0 0 0-.14-.62z"/><path class="cls-14" d="M55.75 52c-6.39-7.36-22.66-21-30.87-28.32a.85.85 0 0 0-1.21.07C27 26.28 53.1 50.49 54.89 52.82l.43-.43z"/></g><g class="cls-17"><path class="cls-4" d="M21.22 72.78a6.35 6.35 0 0 0 5.38-4.25 14.33 14.33 0 0 1 1.28-2.41c2.11-3.19 5.23-5.05 7.82-4.86l.52.06a4.64 4.64 0 0 1 .78.17 2.63 2.63 0 0 1 2 2.68v.12a10.46 10.46 0 0 1-3.7 7 9.26 9.26 0 0 1-.74.56c-4 2.75-10.19 3.13-13.15 1z"/><path class="cls-5" d="M27.88 66.12c2.11-3.19 5.23-5.05 7.82-4.86l.52.06.46.62a14.57 14.57 0 0 0-7.39 5.79c-.04-1.23-.76-1.73-1.41-1.61z"/><path class="cls-6" d="M44.25 52c6.39-7.36 22.66-21 30.87-28.32a.85.85 0 0 1 1.21.07.84.84 0 0 1 0 1.06C71.25 30.89 55.87 49.46 48.25 56l-3.14-3.13-.43-.43z"/><path class="cls-7" d="M36.22 61.32a.42.42 0 0 1 .09-.32l7.23-9a.45.45 0 0 1 .68 0l.65.64.22.22L48.25 56a.45.45 0 0 1 0 .67l-8.85 7.42a.45.45 0 0 1-.6 0l-2.11-2.11-.34-.34-.07-.09a.44.44 0 0 1-.06-.23z"/><path class="cls-8" d="M21.11 72.5c2.06-.39 4-1.56 5.87-5.6a1.34 1.34 0 0 1 .9-.78c.65-.14 1.37.38 1.42 1.62.08 1.78 1.92 2.25 3.24 1.66a1.88 1.88 0 0 1 2.8 1.95 2.34 2.34 0 0 1-1 1.4c-2.05 1.48-8.48 3.52-13 .62l-.34-.24a.35.35 0 0 1 .11-.63z"/><path class="cls-9" d="M38.84 63.63l9-8.08-1.06-1.06-8.54 8.54.6.6z"/><path class="cls-10" d="M34 72.13c-1.58 1.45-6 2.51-9.43 1.93a.26.26 0 0 1 0-.51 14.85 14.85 0 0 0 7.91-2.74c1.33-1.12 2.59.3 1.52 1.32z"/><path class="cls-11" d="M48.06 55c2.2-2.29 22-22.75 26.88-29.38C69.12 31.56 48.18 52.83 47 54z"/><path class="cls-12" d="M36.22 61.32a.42.42 0 0 1 .09-.32l7.23-9a.45.45 0 0 1 .68 0l.65.64c-1.6 1.91-8.13 9.23-8.2 9.34l-.34-.34-.07-.09z"/><path class="cls-13" d="M21.11 72.5c2.06-.39 4-1.56 5.87-5.6a1.34 1.34 0 0 1 .9-.78c.65-.14 1.37.38 1.42 1.62-.09-.6-1.18-.71-1.66.15a17 17 0 0 1-2.79 3.8 6 6 0 0 1-3.31 1.25h-.1a.23.23 0 0 0-.11.42l-.33-.23a.35.35 0 0 1 .11-.63z"/><path class="cls-14" d="M44.25 52c6.39-7.36 22.66-21 30.87-28.32a.85.85 0 0 1 1.21.07C73 26.28 46.9 50.49 45.11 52.82l-.43-.43z"/></g><path class="cls-18" d="M18.17 50h63.66M50 18.17v63.66"/></g><g id="tool--solid-brush"><g class="cls-19" id="tool--solid-brush-2" data-name="tool--solid-brush"><path class="cls-20" d="M160.17-51.72C144.24-33.49 103.72.42 83.29 18.71a2.11 2.11 0 0 1-3-.17 2.09 2.09 0 0 1 .08-2.63C92.91.76 131.22-45.5 150.21-61.68l7.81 7.8 1.07 1.08z"/><path class="cls-21" d="M150.67-59.32c-5.47 5.71-54.84 56.67-67 73.17C98.22-.91 150.37-53.9 153.3-56.71l-2.63-2.61z"/><path class="cls-22" d="M160.17-51.72C144.24-33.49 103.72.42 83.29 18.71a2.11 2.11 0 0 1-3-.17c8.26-6.31 73.3-66.6 77.74-72.42l1.07 1.08z"/></g></g></g></svg>