<svg xmlns="http://www.w3.org/2000/svg" viewBox="0 0 100 100"><defs><style>.cls-1,.cls-7{fill:none}.cls-2{clip-path:url(#clip-path)}.cls-3{fill:#00aaa1}.cls-4{fill:#007f7f}.cls-5{fill:#fff}.cls-6{clip-path:url(#clip-path-2)}.cls-7{stroke:#cccaba;stroke-linecap:round;stroke-linejoin:round;stroke-width:1.94px}.cls-8{fill:#938f7d}.cls-9{fill:#0dbcce}.cls-10{fill:url(#linear-gradient)}.cls-11,.cls-12{fill:#756f63}.cls-12,.cls-15,.cls-16{opacity:.5}.cls-13,.cls-17{fill:#06a6b7}.cls-13{opacity:.85}.cls-14{fill:#cccaba}.cls-15{fill:#d8d7bf}.cls-16{fill:#88f9ff}</style><clipPath id="clip-path"><path class="cls-1" d="M15.56-111.22h68.89v62.43H15.56z"/></clipPath><clipPath id="clip-path-2"><path class="cls-1" d="M91.62 19.51v61A11.12 11.12 0 0 1 80.5 91.63h-61a10.9 10.9 0 0 1-5-1.18 11.13 11.13 0 0 1-6.12-9.95v-61A11.12 11.12 0 0 1 19.5 8.38h61a11.12 11.12 0 0 1 11.12 11.13z"/></clipPath><linearGradient id="linear-gradient" x1="-854.32" y1="301.59" x2="-806.32" y2="301.59" gradientTransform="rotate(45 -91.815 1236.959)" gradientUnits="userSpaceOnUse"><stop offset="0" stop-color="#e8e8e8"/><stop offset="1" stop-color="#bfbfbf"/></linearGradient></defs><title>brush_bucket</title><g id="Decorations"><g id="decoration--painting-pane"><g class="cls-2" id="decoration--painting-pane-2" data-name="decoration--painting-pane"><path class="cls-3" d="M45.31 1.5A1.74 1.74 0 0 1 43.66.26L43.27-1c-3.86-12.15-14.12-44.49-16.08-58.74a.5.5 0 0 1 .39-.56L34-61.71l.94-.2.83-.19h.11a.5.5 0 0 1 .48.36c3 10.44 6 30.67 8.47 46.92C45.61-9.54 46.36-4.55 47-.55a1.8 1.8 0 0 1-.33 1.36 1.68 1.68 0 0 1-1.12.67h-.24z"/><path class="cls-4" d="M35.88-61.61c4 13.84 8 45 10.64 61.14A1.26 1.26 0 0 1 45.46 1h-.15a1.25 1.25 0 0 1-1.17-.89C40.6-11.06 29.71-45.1 27.69-59.81l6.42-1.41.89-.19.87-.19m0-1h-.22l-.81.18h-.12l-.83.18-6.43 1.41a1 1 0 0 0-.78 1.11C28.66-45.39 38.93-13 42.79-.83l.4 1.24A2.24 2.24 0 0 0 45.31 2h.33a2.18 2.18 0 0 0 1.43-.86 2.31 2.31 0 0 0 .43-1.77c-.65-4-1.39-9-2.18-14.28-2.42-16.27-5.44-36.51-8.48-47a1 1 0 0 0-1-.72z"/><path class="cls-3" d="M54.37 6.22a1.77 1.77 0 0 1-.35 0 1.82 1.82 0 0 1-1.45-2.06l10.29-67.69a.5.5 0 0 1 .21-.33.5.5 0 0 1 .29-.09h.1l8.05 1.58a.5.5 0 0 1 .32.22.5.5 0 0 1 .07.39L56.15 4.81a1.79 1.79 0 0 1-.79 1.11 1.75 1.75 0 0 1-.59.24 1.72 1.72 0 0 1-.4.06z"/><path class="cls-4" d="M63.36-63.46l8.05 1.58L55.66 4.7a1.3 1.3 0 0 1-.57.81 1.25 1.25 0 0 1-.42.17 1.27 1.27 0 0 1-.3 0h-.25a1.32 1.32 0 0 1-1.05-1.5l10.29-67.64m0-1a1 1 0 0 0-.58.18 1 1 0 0 0-.41.67L52.08 4a2.32 2.32 0 0 0 2.29 2.67 2.28 2.28 0 0 0 .54-.07 2.19 2.19 0 0 0 .71-.3 2.29 2.29 0 0 0 1-1.43l15.76-66.52a1 1 0 0 0-.13-.77 1 1 0 0 0-.65-.44l-8.05-1.58h-.19z"/></g></g></g><g id="Tools"><g id="tool--bucket"><g id="tool--bucket-2" data-name="tool--bucket"><path class="cls-5" d="M91.62 19.51v61A11.12 11.12 0 0 1 80.5 91.63h-61a10.9 10.9 0 0 1-5-1.18 11.13 11.13 0 0 1-6.12-9.95v-61A11.12 11.12 0 0 1 19.5 8.38h61a11.12 11.12 0 0 1 11.12 11.13z"/><g class="cls-6"><path class="cls-7" d="M19.65 20.58c4-4 22.64 8.08 41.59 27"/><path class="cls-8" d="M48 93.78l-8 8c-3.07 3.07-10.15 1.34-18-3.78a67 67 0 0 1-10.6-8.71 66.27 66.27 0 0 1-9-11.08 35.67 35.67 0 0 1-4.27-8.85c-1.14-3.79-1-6.88.8-8.64l8-8a18 18 0 0 0 1.21 6.63A42.14 42.14 0 0 0 12.61 68a71.52 71.52 0 0 0 19.62 19.82C37.87 91.57 43.56 94 48 93.78z"/><path class="cls-9" d="M64.49 77.31L48 93.78c-4.46.17-10.15-2.21-15.79-6A71.52 71.52 0 0 1 12.61 68a42.14 42.14 0 0 1-4.44-8.68A18 18 0 0 1 7 52.73l16.43-16.47a18 18 0 0 0 1.21 6.63 42.14 42.14 0 0 0 4.44 8.68 71.52 71.52 0 0 0 19.63 19.78c5.64 3.75 11.29 6.13 15.78 5.96z"/><path class="cls-10" d="M64.36 70.33c-1.07 1.07-2.74 1.44-4.79 1.18-5-.61-12.2-4.86-18.83-11.5s-10.89-13.87-11.5-18.84c-.26-2.05.1-3.71 1.18-4.79 3.67-3.67 14.25.95 23.62 10.32S68 66.66 64.36 70.33z"/><path class="cls-11" d="M78.38 63.41c-1.29 1.3-3.3 1.73-5.79 1.43-6-.74-14.74-5.88-22.78-13.91S36.64 34.15 35.9 28.14c-.31-2.47.13-4.49 1.43-5.79 4.44-4.42 17.23 1.15 28.58 12.5S82.82 59 78.38 63.41z"/><path class="cls-9" d="M72.25 65.19c-5.8-.95-14.41-6.23-22.43-14.25-.69-.69-1.35-1.38-2-2.06-6.89-7.43-11.39-15.08-12.26-20.38 4 0 11 3.26 17.74 8.49h.07c.65.51 1.3 1 1.95 1.59l.08.06.84.75.1.08q1.29 1.15 2.53 2.38c8.02 8.06 12.94 17.03 13.38 23.34z"/><path class="cls-8" d="M78.39 63.41l-13.9 13.9c-4.46.17-10.15-2.21-15.79-6a71.52 71.52 0 0 1-19.62-19.74 42.14 42.14 0 0 1-4.44-8.68 18 18 0 0 1-1.21-6.63l13.9-13.9c-1.76 1.76-1.95 4.85-.8 8.64a36.71 36.71 0 0 0 4.27 8.85 67.2 67.2 0 0 0 9 11.07 66.59 66.59 0 0 0 10.6 8.71c7.71 5.06 14.69 6.81 17.83 3.9a.78.78 0 0 0 .16-.12z"/><path class="cls-12" d="M78.26 63.54L64.49 77.31c-4.46.17-10.15-2.21-15.79-6l11.72-11.68c7.71 5.06 14.69 6.81 17.83 3.9zM48 93.78l-8 8c-3.07 3.07-10.15 1.34-18-3.78l10.2-10.2c5.67 3.77 11.36 6.2 15.8 5.98z"/><path class="cls-13" d="M53.37 37l1.49 1.24c-7-5-14.92-2.44-4.89 10.32-6.91-7.41-13.55-14.8-14.42-20.1 4 0 11 3.26 17.74 8.49z"/><circle class="cls-11" cx="47.27" cy="62.1" r="4.06" transform="rotate(-45 47.269 62.09)"/><path class="cls-14" d="M65.91 34.85C56 24.9 42.53 17.17 37.27 22.43s2.46 18.69 12.41 28.64 23.37 17.68 28.64 12.42-2.46-18.69-12.41-28.64zM71.75 63c-5.33-1-13.27-5.87-20.69-13.3S38.7 34.32 37.79 29c-.39-2.2-.09-4 1-5C42.5 20.24 54 25.72 64.53 36.22s16 22 12.26 25.74C75.7 63 74 63.35 71.75 63z"/><path class="cls-9" d="M74.43 63.19c3.72-.19 9.47 4.15 9.21 9.81a1 1 0 0 0 1.77.64c4.79-7.03 1.59-15.53-3.64-19.47-7.56-5.7-16.57-6.17-22.9-12.28C63 53 70 64.25 74.43 63.19z"/><path class="cls-7" d="M46.68 62.17c-18.95-18.95-31-37.57-27-41.59"/><path class="cls-15" d="M40.8 39.86L29.08 51.57a42.14 42.14 0 0 1-4.44-8.68L36.53 31a36.71 36.71 0 0 0 4.27 8.86zM12.61 68L2.41 78.24a35.67 35.67 0 0 1-4.27-8.85l10-10A42.14 42.14 0 0 0 12.61 68z"/><path class="cls-16" d="M29.08 51.57L12.61 68a42.14 42.14 0 0 1-4.44-8.68l16.47-16.43a42.14 42.14 0 0 0 4.44 8.68z"/><path class="cls-13" d="M64.49 77.31L48 93.78c-4.46.17-10.15-2.21-15.79-6l16.5-16.43c5.64 3.75 11.29 6.13 15.78 5.96z"/><path class="cls-9" d="M71.75 63a14.26 14.26 0 0 0 3 .23c-.53-2.31-3.5-2.23-3-.23z"/><path class="cls-17" d="M56.33 39.51l-.1-.08-1.33-1.11.41.31.08.06c.32.25.61.53.94.82z"/><path class="cls-16" d="M85.09 65.59a.4.4 0 0 0 .76-.17c0-4.8-2.47-9.53-11.46-13.28-6.58-2.74-11.41-3.75-16-7.41a.4.4 0 0 0-.56.55c3.42 4.62 9.69 7.33 12.9 8.62 5.07 2.03 11.91 6.39 14.36 11.69z"/></g></g></g></g></svg>