<svg xmlns="http://www.w3.org/2000/svg" viewBox="0 0 100 100"><defs><style>.cls-1{fill:none}.cls-2{fill:#fff}.cls-3{clip-path:url(#clip-path)}.cls-4{fill:#ea4700}.cls-5{fill:#fdb925}.cls-6{fill:#e01417}.cls-7{fill:#68b42f}.cls-8{fill:#393738}.cls-9{fill:#6b1477}.cls-10{fill:#2090cb}.cls-11{fill:#3439a0}.cls-12{opacity:.25}.cls-13{fill:#a03e08}.cls-14{fill:#d18100}.cls-15{fill:#e77425}.cls-16{fill:url(#linear-gradient)}.cls-17{fill:#ffeb2e}.cls-18{fill:#ff902c}.cls-19{fill:#fff6b6}</style><clipPath id="clip-path"><path class="cls-1" d="M91.62 19.51v61A11.12 11.12 0 0 1 80.5 91.63h-61a10.9 10.9 0 0 1-5-1.18 11.13 11.13 0 0 1-6.12-9.95v-61A11.12 11.12 0 0 1 19.5 8.38h61a11.12 11.12 0 0 1 11.12 11.13z"/></clipPath><linearGradient id="linear-gradient" x1="-521.38" y1="653.51" x2="-480.7" y2="671.45" gradientTransform="rotate(45 503.854 1016.953)" gradientUnits="userSpaceOnUse"><stop offset="0" stop-color="#fccd0b"/><stop offset="1" stop-color="#fba834"/></linearGradient></defs><title>brush_pattern</title><g id="Tools"><g id="tool--pattern-brush"><path class="cls-2" d="M91.62 19.51v61A11.12 11.12 0 0 1 80.5 91.63h-61a10.9 10.9 0 0 1-5-1.18 11.13 11.13 0 0 1-6.12-9.95v-61A11.12 11.12 0 0 1 19.5 8.38h61a11.12 11.12 0 0 1 11.12 11.13z"/><g class="cls-3"><path d="M86.21 43.81L64.69 65.33a1.4 1.4 0 0 1-2 0l-1.39-1.41a1.44 1.44 0 0 0 2 0L83.45 43.8h2.76z"/><path class="cls-4" d="M62.59 20.47v2.36L41.4 44.02l-3.85-3.84 21.73-21.72v2.01h3.31z"/><path class="cls-5" d="M63.79 29.32L45.24 47.87l-3.84-3.85 21.19-21.19v.95h3.33l.08 3.34-2.21 2.2z"/><path class="cls-6" d="M59.28 17.16v1.3L37.55 40.18l-3-3a1.4 1.4 0 0 1 0-2l21.39-21.34v3.32z"/><path class="cls-7" d="M70.33 30.48L49.1 51.71l-3.86-3.84L66 27.12h3.3v3.36h1.03z"/><path class="cls-8" d="M83.45 43.8L63.31 63.95a1.44 1.44 0 0 1-2 0l-.66-.66 22-22v2.51z"/><path class="cls-9" d="M82.61 40.4v.88L60.63 63.26l-3.84-3.85L79.11 37.1h.12v3.3h3.38z"/><path class="cls-10" d="M74.71 33.8L52.94 55.57l-3.84-3.86 21.23-21.23h2.27v3.32h2.11z"/><path class="cls-11" d="M79.11 37.1L56.79 59.41l-3.85-3.84L74.71 33.8h1.21v3.3h3.19z"/><ellipse class="cls-12" cx="45.1" cy="28.43" rx="14.06" ry=".15" transform="rotate(-45 45.105 28.427)"/><ellipse class="cls-12" cx="46.59" cy="29.92" rx="14.06" ry=".15" transform="rotate(-45 46.593 29.92)"/><ellipse class="cls-12" cx="48.08" cy="31.4" rx="14.06" ry=".15" transform="rotate(-45 48.075 31.397)"/><ellipse class="cls-12" cx="49.56" cy="32.89" rx="14.06" ry=".15" transform="rotate(-45 49.564 32.89)"/><ellipse class="cls-12" cx="51.05" cy="34.38" rx="14.06" ry=".15" transform="rotate(-45 51.057 34.371)"/><ellipse class="cls-12" cx="52.54" cy="35.86" rx="14.06" ry=".15" transform="rotate(-45 52.534 35.86)"/><ellipse class="cls-12" cx="54.02" cy="37.35" rx="14.06" ry=".15" transform="rotate(-45 54.022 37.353)"/><ellipse class="cls-12" cx="55.51" cy="38.83" rx="14.06" ry=".15" transform="rotate(-45 55.504 38.83)"/><ellipse class="cls-12" cx="56.99" cy="40.32" rx="14.06" ry=".15" transform="rotate(-45 56.992 40.323)"/><ellipse class="cls-12" cx="58.48" cy="41.81" rx="14.06" ry=".15" transform="rotate(-45 58.486 41.804)"/><ellipse class="cls-12" cx="59.97" cy="43.29" rx="14.06" ry=".15" transform="rotate(-45 59.962 43.293)"/><ellipse class="cls-12" cx="61.45" cy="44.78" rx="14.06" ry=".15" transform="rotate(-45 61.456 44.774)"/><ellipse class="cls-12" cx="62.94" cy="46.27" rx="14.06" ry=".15" transform="rotate(-45 62.945 46.267)"/><ellipse class="cls-12" cx="64.43" cy="47.75" rx="14.06" ry=".15" transform="rotate(-45 64.421 47.756)"/><ellipse class="cls-12" cx="65.91" cy="49.24" rx="14.06" ry=".15" transform="rotate(-45 65.915 49.237)"/><ellipse class="cls-12" cx="67.4" cy="50.72" rx="14.06" ry=".15" transform="rotate(-45 67.391 50.726)"/><ellipse class="cls-12" cx="68.88" cy="52.21" rx="14.06" ry=".15" transform="rotate(-45 68.885 52.207)"/><ellipse class="cls-12" cx="70.37" cy="53.7" rx="14.06" ry=".15" transform="rotate(-45 70.373 53.7)"/><ellipse class="cls-12" cx="71.86" cy="55.18" rx="14.06" ry=".15" transform="rotate(-45 71.855 55.177)"/><path class="cls-13" d="M52.18 79.05l1.58-1.58-1.21-1.21L51 77.84s-1.32 1.58-4.33.81-16.25-3.07-22.31 3-9.6 9.29-15.1 17.35C3.95 106.79-6 118.68-22.2 121.6l.41.41.39-.38-.37.39.79.79c16.23-2.92 26.15-14.8 31.46-22.59 5.5-8.07 9-11.3 15.06-17.36s19.3-3.77 22.32-3 4.32-.81 4.32-.81z"/><path class="cls-14" d="M64.11 64.69L52.55 76.26l1.21 1.21L65.33 65.9a1.41 1.41 0 0 0 0-2l-1.22-1.22a1.42 1.42 0 0 1 0 2.01z"/><path class="cls-15" d="M9.26 99c5.5-8.07 9-11.3 15.06-17.36s19.3-3.77 22.31-3 4.37-.8 4.37-.8l1.58-1.58-29.82-29.79-1.58 1.58s-1.59 1.32-.81 4.33 3.07 16.25-3 22.32S8.08 84.26 0 89.76c-7.78 5.31-19.66 15.24-22.58 31.46l.38.38C-6 118.68 3.95 106.79 9.26 99z"/><path class="cls-16" d="M34.33 34.9L22.76 46.47l29.79 29.79 11.56-11.57a1.42 1.42 0 0 0 0-2L52.34 50.94l-1.22-1.22-1.83-1.83-1.22-1.22-11.74-11.74a1.42 1.42 0 0 0-2-.03z"/><path class="cls-17" d="M63.35 64.38a.61.61 0 0 1-.86 0L35 36.88a.61.61 0 0 1 0-.88.61.61 0 0 1 .87 0l27.5 27.5a.61.61 0 0 1 0 .87z"/><path class="cls-18" d="M50.47 77.27a.61.61 0 0 1-.87 0L22.1 49.76a.61.61 0 0 1 0-.87.61.61 0 0 1 .87 0l27.5 27.5a.61.61 0 0 1 0 .87z"/><path class="cls-14" d="M63 68.23a.49.49 0 0 1-.7 0L31.84 37.76a.49.49 0 0 1 0-.7.49.49 0 0 1 .7 0L63 67.53a.49.49 0 0 1 0 .7z"/><path class="cls-17" d="M62.36 66.89a.49.49 0 0 1-.69 0L31.84 37.06a.49.49 0 0 1 0-.69.49.49 0 0 1 .69 0L62.36 66.2a.49.49 0 0 1 0 .69z"/><path class="cls-14" d="M56.09 75.15a.49.49 0 0 1-.7 0L24.76 44.51a.49.49 0 0 1 0-.7.49.49 0 0 1 .7 0l30.62 30.64a.49.49 0 0 1 0 .7z"/><path class="cls-17" d="M55.46 73.83a.49.49 0 0 1-.69 0L24.92 44a.49.49 0 0 1 0-.69.49.49 0 0 1 .69 0l29.85 29.83a.49.49 0 0 1 0 .69z"/><path class="cls-19" d="M43.08 44.17l5.63-.82-5.8-1a2.41 2.41 0 0 1-2-2.11l-1.11-9.73-.8 9.76a2.41 2.41 0 0 1-2 2.17l-5.69 1.06 5.65.73a2.41 2.41 0 0 1 2.09 2.14l1.07 10.15.88-10.17a2.41 2.41 0 0 1 2.08-2.18zm7.86 19.06l3.2-.46-3.3-.56A1.37 1.37 0 0 1 49.71 61l-.63-5.54-.46 5.54a1.37 1.37 0 0 1-1.12 1.24l-3.26.6 3.22.41a1.37 1.37 0 0 1 1.19 1.22l.61 5.77.51-5.78a1.37 1.37 0 0 1 1.17-1.23z"/></g></g></g></svg>