<svg xmlns="http://www.w3.org/2000/svg" viewBox="0 0 100 100"><defs><style>.cls-1{fill:none}.cls-2{clip-path:url(#clip-path)}.cls-3{fill:#229947}.cls-4{fill:#0f844f}.cls-5{fill:#4fc64f}.cls-6{fill:#fff}.cls-7{clip-path:url(#clip-path-2)}.cls-8{fill:#823806}.cls-9{fill:#6d2d01}.cls-10{fill:#00adad}.cls-11{fill:#9eb7b7}.cls-12{fill:#2dc45b}.cls-13{fill:#bddbda}.cls-14{fill:#6cdd47}.cls-15{fill:#3cd3cf}.cls-16{fill:#849998}.cls-17{fill:#07ad4b}.cls-18{fill:#00938f}</style><clipPath id="clip-path"><path class="cls-1" d="M221.62 19.51v61a11.12 11.12 0 0 1-11.12 11.12h-61a10.9 10.9 0 0 1-5-1.18 11.13 11.13 0 0 1-6.15-9.95v-61A11.12 11.12 0 0 1 149.5 8.38h61a11.12 11.12 0 0 1 11.12 11.13z"/></clipPath><clipPath id="clip-path-2"><path class="cls-1" d="M91.62 19.51v61A11.12 11.12 0 0 1 80.5 91.63h-61a10.9 10.9 0 0 1-5-1.18 11.13 11.13 0 0 1-6.12-9.95v-61A11.12 11.12 0 0 1 19.5 8.38h61a11.12 11.12 0 0 1 11.12 11.13z"/></clipPath></defs><title>brush_solid</title><g id="Tools"><g id="tool--translucent-brush"><g class="cls-2" id="tool--translucent-brush-2" data-name="tool--translucent-brush"><path class="cls-3" d="M156.6 81.44l-84.46 78.19a2.19 2.19 0 0 1-1.55.6 2.11 2.11 0 0 1-.75-.15 2.14 2.14 0 0 1-.79-.5 2.22 2.22 0 0 1-.05-3.08l77.85-84.82z"/><path class="cls-4" d="M156.6 81.44l-84.46 78.19a2.19 2.19 0 0 1-1.55.6 2.11 2.11 0 0 1-.75-.15l83.51-81 2 1.06z"/><path class="cls-5" d="M146.85 74.93l1.92 1.92-76.21 78.42-.46-.46 74.75-79.88z"/></g></g><g id="tool--solid-brush"><g id="tool--solid-brush-2" data-name="tool--solid-brush"><path class="cls-6" d="M91.62 19.51v61A11.12 11.12 0 0 1 80.5 91.63h-61a10.9 10.9 0 0 1-5-1.18 11.13 11.13 0 0 1-6.12-9.95v-61A11.12 11.12 0 0 1 19.5 8.38h61a11.12 11.12 0 0 1 11.12 11.13z"/><g class="cls-7"><path class="cls-8" d="M87.54 26.42C81 27.07 76.6 31 74.13 37a35.68 35.68 0 0 1-3.19 6c-5.26 8-13 12.58-19.49 12.09-.45 0-.88-.08-1.3-.15a11.55 11.55 0 0 1-1.94-.43 6.55 6.55 0 0 1-5.07-6.68v-.3c0-4.56 3.09-12.41 9.22-17.55a23.06 23.06 0 0 1 1.85-1.4C64.26 21.75 79.58 20.79 87 26c.16.13.35.27.54.42z"/><path class="cls-9" d="M70.94 43c-5.26 8-13 12.58-19.49 12.09-.45 0-.88-.08-1.3-.15L49 53.41c6-1.83 13.09-6.67 18.4-14.41.13 3.05 1.91 4.35 3.54 4z"/><path class="cls-10" d="M30.17 78.28c-15.93 18.23-56.45 52.14-76.88 70.43a2.11 2.11 0 0 1-3-.17 2.09 2.09 0 0 1 .08-2.63c12.59-15.12 50.9-61.37 69.89-77.56L28 76.12l1.07 1.08z"/><path class="cls-11" d="M50.16 55a1.05 1.05 0 0 1-.23.8l-18 22.48a1.12 1.12 0 0 1-1.68.1l-.06-.06-1.61-1.6-.58-.59-7.81-7.8a1.12 1.12 0 0 1 .08-1.67l22-18.56a1.12 1.12 0 0 1 1.5.08L49 53.41l.84.84a1.34 1.34 0 0 1 .17.23 1.08 1.08 0 0 1 .15.52z"/><path class="cls-12" d="M87.79 27.11c-5.13 1-9.87 3.9-14.62 13.94a3.33 3.33 0 0 1-2.23 2c-1.63.34-3.41-1-3.54-4-.2-4.44-4.79-5.61-8.07-4.15-4.22 1.89-7.69-1.4-7-4.85a5.82 5.82 0 0 1 2.47-3.55c5.11-3.69 21.12-8.77 32.43-1.55.31.19.6.39.9.6a.87.87 0 0 1-.34 1.56z"/><path class="cls-13" d="M43.64 49.22L21.22 69.33l2.65 2.65 21.26-21.27-1.49-1.49z"/><path class="cls-14" d="M55.81 28c3.94-3.61 15-6.26 23.48-4.8a.65.65 0 0 1 0 1.28c-8.24.55-15.65 3.56-19.7 6.84-3.43 2.79-6.59-.73-3.78-3.32z"/><path class="cls-15" d="M20.67 70.68c-5.47 5.71-54.84 56.67-67 73.17 14.55-14.76 66.7-67.75 69.63-70.56l-2.63-2.61z"/><path class="cls-16" d="M50.16 55a1.05 1.05 0 0 1-.23.8l-18 22.48a1.12 1.12 0 0 1-1.68.1l-.06-.06-1.61-1.6c4-4.75 20.25-23 20.43-23.27l.84.84a1.34 1.34 0 0 1 .17.23z"/><path class="cls-17" d="M87.79 27.11c-5.13 1-9.87 3.9-14.62 13.94a3.33 3.33 0 0 1-2.23 2c-1.63.34-3.41-1-3.54-4 .22 1.5 2.93 1.77 4.15-.38s4.28-7.2 6.94-9.47a14.84 14.84 0 0 1 8.23-3.2 1 1 0 0 0 .28 0 .57.57 0 0 0 .27-1c.31.19.6.39.9.6a.87.87 0 0 1-.38 1.51z"/><path class="cls-18" d="M30.17 78.28c-15.93 18.23-56.45 52.14-76.88 70.43a2.11 2.11 0 0 1-3-.17c8.26-6.31 73.3-66.6 77.74-72.42l1.07 1.08z"/></g></g></g></g></svg>