<svg xmlns="http://www.w3.org/2000/svg" viewBox="0 0 100 100"><defs><clipPath id="a"><path d="M8.38 19.51v61A11.12 11.12 0 0 0 19.5 91.63h61a10.9 10.9 0 0 0 5-1.18 11.13 11.13 0 0 0 6.15-9.95v-61A11.12 11.12 0 0 0 80.5 8.38h-61A11.12 11.12 0 0 0 8.38 19.51z" fill="none"/></clipPath><clipPath id="b"><circle cx="50.36" cy="8.37" r="49.53" fill="none"/></clipPath></defs><title>brush_magic</title><g style="isolation:isolate"><path d="M91.62 19.51v61A11.12 11.12 0 0 1 80.5 91.63h-61a10.9 10.9 0 0 1-5-1.18 11.13 11.13 0 0 1-6.12-9.95v-61A11.12 11.12 0 0 1 19.5 8.38h61a11.12 11.12 0 0 1 11.12 11.13z" fill="#fff"/><g clip-path="url(#a)"><g clip-path="url(#b)"><path d="M100.79 15.91c-5-.82-9.71-2.11-14.42-3.31-2.37-.6-4.67-1.23-6.94-1.75-1.14-.27-2.26-.48-3.34-.65h-.2.38a2.85 2.85 0 0 0 1.18-.26 2.77 2.77 0 0 0 1.41-1.41A2.39 2.39 0 0 0 79 7.12a2.65 2.65 0 0 0-.85-1.48l5.75 4.12c2 1.45 4 2.92 6 4.43A127.21 127.21 0 0 1 101.8 24c.48.5 1 .94 1.44 1.49l.72.81.18.2a3.42 3.42 0 0 1 .3.38 5.79 5.79 0 0 1 .82 1.59 5.58 5.58 0 0 1-.12 3.77 5.7 5.7 0 0 1-2.26 2.76 5.58 5.58 0 0 1-3.7.81 5.73 5.73 0 0 1-1.73-.53l-.35-.18-.1-.1-.19-.11c-2.07-1.15-4.25-2.27-6.42-3.38-4.39-2.2-8.75-4.35-13.17-6.41S68.3 21.05 64 19.56c-.54-.19-1-.32-1.55-.48h-.1.08a1.8 1.8 0 0 0 .41.06 2.85 2.85 0 0 0 1-.08 3 3 0 0 0 1.69-1.15 2.88 2.88 0 0 0 .55-1.72 3.08 3.08 0 0 0-.7-1.93 2.67 2.67 0 0 0-.61-.55l.4.27.8.54c2.15 1.43 4.22 3 6.26 4.56a100.43 100.43 0 0 1 11.33 10.54 73.52 73.52 0 0 1 5 6.06c.79 1.09 1.57 2.18 2.3 3.4l.28.45a6 6 0 0 1 .66 1.7 5.69 5.69 0 0 1-.52 3.83 5.8 5.8 0 0 1-2.58 2.52 5.67 5.67 0 0 1-5.5-.26l-.37-.24-.1-.07-.19-.14-.77-.56-1.47-1.12-3-2.23-5.89-4.41a113.09 113.09 0 0 0-11.87-7.89l-.75-.41h.07l.18.07c.11 0 .26.08.41.11a3 3 0 0 0 1 0 2.76 2.76 0 0 0 1.6-.85 2.66 2.66 0 0 0 .68-1.53 2.77 2.77 0 0 0-.44-1.8 1.56 1.56 0 0 0-.22-.3h-.05l.09.1.35.39c.48.53.89 1 1.32 1.55 1.67 2 3.16 4.08 4.63 6.14 2.93 4.14 5.68 8.21 8.36 12.67l.26.45.13.23.06.11.18.36a5.31 5.31 0 0 1-4.78 7.58 5.08 5.08 0 0 1-1.77-.29 4.26 4.26 0 0 1-.77-.34 6.9 6.9 0 0 1-.54-.33l-.71-.48-1.48-1-6.11-3.89-6.17-4-5.88-4-.33-.2a2.12 2.12 0 0 1 1.71-3.81c.85.22 1.42.43 2.05.63l1.8.66c1.18.45 2.34.95 3.5 1.43 2.29 1 4.57 2 6.8 3.17s4.45 2.28 6.66 3.54l1.66 1 .85.53c.15.1-.06-.06-.14-.09a3.55 3.55 0 0 0-.35-.16 2.8 2.8 0 0 0-.86-.14 2.48 2.48 0 0 0-2.44 1.91 2.66 2.66 0 0 0 .15 1.72l.08.15-.05-.09-.1-.18-.18-.38c-2.46-4-5.29-8.09-8.11-12C60.44 37 59 35 57.5 33.25c-.37-.43-.74-.88-1.1-1.26l-.27-.3-.23-.25a7.87 7.87 0 0 1-.51-.66 5.5 5.5 0 0 1-.86-3.57A5.58 5.58 0 0 1 56 24a5.5 5.5 0 0 1 3.2-1.72 5.29 5.29 0 0 1 1.9 0 4.7 4.7 0 0 1 .85.24l.39.16.28.13.88.47a120.57 120.57 0 0 1 13 8.3q3.06 2.19 6 4.41l3 2.19 1.47 1.08.73.53.18.13.09.07-.17-.12a3 3 0 0 0-2.85-.12A2.85 2.85 0 0 0 83.67 41a3 3 0 0 0-.27 2 2.67 2.67 0 0 0 .33.84l-.21-.34c-.54-.9-1.2-1.82-1.87-2.73a64.93 64.93 0 0 0-4.47-5.32A92.79 92.79 0 0 0 66.72 26C64.87 24.51 63 23.08 61 21.77l-.73-.5-.34-.27a6.16 6.16 0 0 1-1.3-1.16 5.73 5.73 0 0 1-1.32-3.63 5.84 5.84 0 0 1 1.11-3.45 5.73 5.73 0 0 1 3.18-2.19 5.89 5.89 0 0 1 2-.17 8.06 8.06 0 0 1 .87.15h.38c.66.21 1.36.41 2 .63 5 1.77 9.52 3.85 14.09 6s9 4.35 13.45 6.65c2.23 1.15 4.42 2.33 6.66 3.61l.21.12.1.06-.14-.08a2.8 2.8 0 0 0-.86-.25 2.94 2.94 0 0 0-1.93.42 2.74 2.74 0 0 0-1.1 1.32 2.91 2.91 0 0 0-.05 2 2.67 2.67 0 0 0 .39.78c.14.17 0 .05 0 0l-.13-.14-.5-.58c-.33-.39-.75-.79-1.12-1.19A120.3 120.3 0 0 0 85 20.73c-1.93-1.49-3.88-3-5.86-4.41l-3-2.19L74.66 13l-.76-.56-.38-.28-.19-.16-.1-.07-.33-.27a5.4 5.4 0 0 1-1.75-3.05 5.57 5.57 0 0 1 .34-3.22 5.22 5.22 0 0 1 2.64-2.74 5.14 5.14 0 0 1 2.08-.45h1.09c1.36.23 2.67.5 3.93.81a75.2 75.2 0 0 1 7.35 2.19 92 92 0 0 1 13.71 6.1 2.39 2.39 0 0 1-1.54 4.44z" fill="#ffc306"/></g><path d="M-27.68 141.93a1.47 1.47 0 0 0 1.83-.23c9.76-9.76 39.64-39.49 49.73-53.79a.79.79 0 0 0 1.16-.17l11.61-16.49a.78.78 0 0 0 .1-.65H37c3.19-.3 8.47-3 11.68-7.56a4.08 4.08 0 0 0 2.28-1.94c2.25-3.8 4.78-15.32-1-22.76-.16-.2-.31-.4-.48-.59a.61.61 0 0 0-1.07.34c-.36 3.64-2.09 7.15-8.81 11.11a2.33 2.33 0 0 0-1.22 1.68c-5.22 4.18-8 9.9-7.21 14.39.05.31.11.61.19.9a.74.74 0 0 0-.54.21l-14.56 14a.79.79 0 0 0 0 1.18l.81.68-.81-.68C4.59 93.91-16.51 124.39-28 139.83a1.48 1.48 0 0 0 .32 2.1zm44.81-59.64l.17.14-.17-.14z" style="mix-blend-mode:multiply" fill="#494743" opacity=".75"/><circle cx="50" cy="8.37" r="49.53" fill="none" stroke="#2d2b25" stroke-miterlimit="10"/><path d="M48.57 38.49c-.46 4.59-3.25 7.67-7.42 9.41a25 25 0 0 0-4.22 2.24c-5.58 3.69-8.83 9.13-8.49 13.67 0 .32.06.62.1.91a8.1 8.1 0 0 0 .31 1.36 4.6 4.6 0 0 0 4.69 3.56h.21c3.2 0 8.71-2.17 12.32-6.47a16.18 16.18 0 0 0 1-1.3c4.8-7.06 5.47-17.81 1.82-23-.12-.11-.22-.25-.32-.38z" fill="#823806"/><path d="M48 60.73c-3.56 5.66-9.85 8.92-14.42 8.91-.32 0-.24-.39-.53-.44l-.85-1c4.22-1.28 9.6-4.9 13.32-10.34.05 2.2 1.3 3.14 2.48 2.87z" fill="#6d2d01"/><path d="M19.46 86.2C8.28 99-20.15 122.79-34.49 135.62a1.48 1.48 0 0 1-2.12-.12 1.47 1.47 0 0 1 .06-1.84c8.84-10.61 35.72-43.06 49-54.42l5.48 5.47.75.76z" fill="#058dc9"/><path d="M33.48 69.84a.74.74 0 0 1-.16.56L20.68 86.17a.79.79 0 0 1-1.18.07l-1.13-1.12-.37-.42-5.48-5.47a.79.79 0 0 1 0-1.23l15.41-13a.78.78 0 0 1 1.05.06l3.69 3.69.59.59a.94.94 0 0 1 .12.16.76.76 0 0 1 .1.34z" fill="#9eb7b7"/><path d="M39.75 52.62c3.12.14 3.94 3.36 2.91 5.66a4.06 4.06 0 0 0-.37 2.07 3.16 3.16 0 0 0 3.77 2.82 4.09 4.09 0 0 0 2.45-1.72c2.24-3.11 5.22-12 2.68-19.41a15.16 15.16 0 0 0-1.59-3.34q-.2-.31-.42-.63a.62.62 0 0 0-1.1.24c-.68 3.6-2.73 6.93-9.78 10.26a2.33 2.33 0 0 0-1.37 1.56c-.24 1.15.67 2.39 2.82 2.49z" fill="#ed9700"/><path fill="#bddbda" d="M28.91 65.81L13.18 79.92l1.86 1.86 14.92-14.92-1.05-1.05z"/><path d="M12.79 80.87c-3.84 4-38.48 39.76-47 51.34C-24 121.86 12.58 84.68 14.64 82.7z" fill="#05b3db"/><path d="M33.48 69.84a.74.74 0 0 1-.16.56L20.68 86.17a.79.79 0 0 1-1.18.07l-1.13-1.12c2.79-3.33 14.21-16.13 14.34-16.33l.59.59a.94.94 0 0 1 .12.16z" fill="#849998"/><path d="M19.46 86.2C8.28 99-20.15 122.79-34.49 135.62a1.48 1.48 0 0 1-2.12-.12c5.8-4.43 51.43-46.73 54.55-50.82l.75.76z" fill="#0070b5"/><path d="M48.73 38.49a.11.11 0 0 0-.22 0c-.72 6.93-7.92 9.9-9.52 10.7s-.81 2.68 1.11 2c3.9-1.41 9.57-5.09 8.63-12.7z" fill="#ffc306"/><path d="M42.29 60.36a3.16 3.16 0 0 0 3.77 2.82 4.09 4.09 0 0 0 2.45-1.72c2.24-3.11 5.22-12 2.68-19.41a26.93 26.93 0 0 1-3.56 16.84c-2.29 3.5-4.92 2.97-5.34 1.47z" fill="#d36900"/></g></g></svg>