<svg xmlns="http://www.w3.org/2000/svg" viewBox="0 0 100 100"><defs><style>.cls-1{fill:none}.cls-2{fill:#fff}.cls-3{clip-path:url(#clip-path)}.cls-4{clip-path:url(#clip-path-2)}.cls-5{fill:#ce3665}.cls-6{fill:#ed4877}.cls-7{fill:#ff6187}</style><clipPath id="clip-path"><path class="cls-1" d="M91.62 19.51v61A11.12 11.12 0 0 1 80.5 91.63h-61a10.9 10.9 0 0 1-5-1.18 11.13 11.13 0 0 1-6.12-9.95v-61A11.12 11.12 0 0 1 19.5 8.38h61a11.12 11.12 0 0 1 11.12 11.13z"/></clipPath><clipPath id="clip-path-2"><path class="cls-1" d="M-4.91 75.91l46.68-46.68a8.4 8.4 0 0 1 3.11-2l10.94-3.92a2.93 2.93 0 0 1 3.06.69l23.85 23.88a2.93 2.93 0 0 1 0 4.15L36.66 98.1a8.4 8.4 0 0 1-2.22 1.59l-13.31 3.59a2.93 2.93 0 0 1-3.37-.56L-4.91 80.06a2.93 2.93 0 0 1 0-4.15z"/></clipPath></defs><title>brush_eraser</title><g id="Tools"><g id="tool--eraser"><g id="tool--eraser-2" data-name="tool--eraser"><path class="cls-2" d="M91.62 19.51v61A11.12 11.12 0 0 1 80.5 91.63h-61a10.9 10.9 0 0 1-5-1.18 11.13 11.13 0 0 1-6.12-9.95v-61A11.12 11.12 0 0 1 19.5 8.38h61a11.12 11.12 0 0 1 11.12 11.13z"/><g class="cls-3"><g class="cls-4"><path class="cls-5" d="M57.9 31.52L4.78 75.49 29.5 93.96l-10.26 10.25 16.44-5.13 49.13-49.13L57.9 31.52z"/><path class="cls-6" transform="rotate(45 31.167 66.06)" d="M12.62 30.64h37.09v70.84H12.62z"/><path class="cls-7" d="M57.56 22.72L43.1 27.9l26.23 26.22 15.48-4.17-27.25-27.23z"/></g></g></g></g></g></svg>