<svg xmlns="http://www.w3.org/2000/svg" viewBox="0 0 100 100"><defs><style>.cls-1,.cls-12{fill:none}.cls-2{fill:#fff}.cls-3{clip-path:url(#clip-path)}.cls-4{fill:gray}.cls-5{fill:#9dc1b7}.cls-6{fill:#3c525b}.cls-10,.cls-7{fill:#25383f}.cls-8{fill:#303e44}.cls-9{fill:#4a6664}.cls-10{opacity:.5}.cls-11{fill:#1b2c30}.cls-12{stroke:#cfeaca;stroke-linecap:round;stroke-linejoin:round;stroke-width:1.21px}.cls-13{fill:#cfeaca}.cls-14{fill:#84a5a3}</style><clipPath id="clip-path"><path class="cls-1" d="M91.62 19.51v61A11.12 11.12 0 0 1 80.5 91.63h-61a10.9 10.9 0 0 1-5-1.18 11.13 11.13 0 0 1-6.12-9.95v-61A11.12 11.12 0 0 1 19.5 8.38h61a11.12 11.12 0 0 1 11.12 11.13z"/></clipPath></defs><title>brush_spraycan</title><g id="Tools"><g id="tool--spray-can"><g id="tool--spray-can-2" data-name="tool--spray-can"><path class="cls-2" d="M91.62 19.51v61A11.12 11.12 0 0 1 80.5 91.63h-61a10.9 10.9 0 0 1-5-1.18 11.13 11.13 0 0 1-6.12-9.95v-61A11.12 11.12 0 0 1 19.5 8.38h61a11.12 11.12 0 0 1 11.12 11.13z"/><g class="cls-3"><path class="cls-4" transform="rotate(-45 67.664 32.313)" d="M64.31 30.38h6.71v3.88h-6.71z"/><path class="cls-5" d="M69.89 58.05L57.56 45.72 42.11 30.27a5.68 5.68 0 0 1 .83-.63A10.91 10.91 0 0 1 44.1 29a18.25 18.25 0 0 1 9.36-1.74 10.81 10.81 0 0 1 1.18.18 9.37 9.37 0 0 1 2.87 1l14 14a12 12 0 0 1 .88 2.72c.09.39.15.8.2 1.19a18 18 0 0 1-1.48 9.66 8.64 8.64 0 0 1-.63 1.15 7.93 7.93 0 0 1-.59.89z"/><path class="cls-6" transform="rotate(-45 22.533 77.456)" d="M-23.08 56.91h91.22V98h-91.22z"/><path class="cls-7" transform="rotate(45 53.273 46.707)" d="M32.73 44.39h41.09v4.62H32.73z"/><path class="cls-8" transform="rotate(45 -8.185 108.17)" d="M-28.73 105.86h41.09v4.62h-41.09z"/><path class="cls-9" transform="rotate(45 13.876 68.767)" d="M10.94 27.61h5.86v82.3h-5.86z"/><path class="cls-10" transform="rotate(45 35.003 89.899)" d="M32.07 48.74h5.86v82.3h-5.86z"/><path class="cls-5" d="M70.31 60.08a2.17 2.17 0 0 1-3.07 0L39.9 32.74a2.17 2.17 0 0 1 0-3.07 2.17 2.17 0 0 1 3.07 0L70.31 57a2.17 2.17 0 0 1 0 3.07zM5.48 124.91a2.09 2.09 0 0 1-.75.49 2.18 2.18 0 0 1-2.32-.49l-27.34-27.34a2.18 2.18 0 0 1-.49-2.32 2.09 2.09 0 0 1 .49-.75 2.17 2.17 0 0 1 3.07 0l27.34 27.34a2.17 2.17 0 0 1 0 3.07zm67.6-82.43a1.09 1.09 0 0 1-1.55 0l-14-14a1.09 1.09 0 0 1 0-1.55 1.09 1.09 0 0 1 1.55 0l14 14a1.09 1.09 0 0 1 0 1.55z"/><rect class="cls-6" x="66.15" y="23.88" width="10.34" height="9.56" rx=".88" ry=".88" transform="rotate(-45 71.324 28.667)"/><circle class="cls-11" cx="71.32" cy="28.66" r="1.94" transform="rotate(-45 71.324 28.667)"/><path class="cls-12" d="M41.97 30.67l27.34 27.34M58.28 27.68l13.91 13.91m-94.93 53.79L4.6 122.72"/><path class="cls-13" d="M45.9 32.59c1.91-1.91 8-4.69 13-2.77l1.5 1.5c-2.46-.83-8.32 3.4-10.34 5.41z"/><path class="cls-14" d="M72.41 45.2L54.64 27.43a9.37 9.37 0 0 1 2.87 1l14 14a12 12 0 0 1 .9 2.77zm-1.91 12L42.95 29.65A10.91 10.91 0 0 1 44.1 29l.09.07 26.87 26.85.08.13a8.64 8.64 0 0 1-.64 1.15zM4.74 125.4a2.18 2.18 0 0 1-2.32-.49l-27.35-27.34a2.18 2.18 0 0 1-.49-2.32z"/></g></g></g></g></svg>