<svg xmlns="http://www.w3.org/2000/svg" viewBox="0 0 100 100"><defs><style>.cls-1{fill:#009db7}.cls-2{fill:none;stroke:#009db7;stroke-linecap:round;stroke-linejoin:round;stroke-width:2px}</style></defs><title>category_fun</title><g id="Decorations"><g id="decoration--fun-pane"><g id="decoration--fun-pane-2" data-name="decoration--fun-pane"><path class="cls-1" d="M65.79 31l-12.65-.9.81-12.68-10.3 7.48-7.52-10.24L33.05 27 20.7 24l5.56 11.42L14.89 41l11.59 5.17-5.1 11.63 12.21-3.48 3.58 12.19L44.28 56l10.57 7-1.31-12.58L66.15 49 57 40.19zm-24.5 18.72a2.57 2.57 0 0 1-1.37 1.13 2.39 2.39 0 0 1-1.75.08A2 2 0 0 1 37 49.72a2 2 0 0 1 .07-1.72 2.41 2.41 0 0 1 1.38-1.2 2.39 2.39 0 0 1 1.75 0 2.06 2.06 0 0 1 1.16 1.2 1.91 1.91 0 0 1-.07 1.72zm-.14-12a11.09 11.09 0 0 1-1.82 2.9c-.64.78-.85 1.44-.63 2a.6.6 0 0 0 .13.26 1.2 1.2 0 0 1 .14.29 1.42 1.42 0 0 1-.06 1.24 2 2 0 0 1-1.1.89 2 2 0 0 1-1.7-.08 2.69 2.69 0 0 1-1.23-1.52 3.74 3.74 0 0 1 .87-3.82 11.35 11.35 0 0 0 1.6-2.34 1.9 1.9 0 0 0 .05-1.41A2 2 0 0 0 36.13 35a2.68 2.68 0 0 0-1.93.09 4.12 4.12 0 0 0-2 1.73A3.3 3.3 0 0 1 30.9 38a1.59 1.59 0 0 1-1.3-.16 1.85 1.85 0 0 1-1-.94A2 2 0 0 1 29 35a8.17 8.17 0 0 1 4-3.32 6.71 6.71 0 0 1 4.91-.14 5.29 5.29 0 0 1 3.25 3.22 3.91 3.91 0 0 1-.01 3zm9.09 9.58a2.18 2.18 0 0 1-.61 1.7 2.42 2.42 0 0 1-1.69.62 2.23 2.23 0 0 1-1.57-.55 1.91 1.91 0 0 1-.65-1.49 2.32 2.32 0 0 1 .64-1.65 2.18 2.18 0 0 1 1.6-.73 2.25 2.25 0 0 1 1.64.58 2 2 0 0 1 .64 1.56zm-.48-15.56c0 3-.1 6.26-.29 9.75a1.47 1.47 0 0 1-1.63 1.55q-1.41 0-1.54-1.52l-.3-3.8-.42-6.43a1.66 1.66 0 0 1 .42-1.42 2.28 2.28 0 0 1 1.58-.53 2 2 0 0 1 1.66.56 2.85 2.85 0 0 1 .52 1.87z"/><path class="cls-2" d="M61.49 70.91a3.22 3.22 0 0 1-3.32 3.32A4.62 4.62 0 0 1 54 69.85c-.08-5 4.77-6.32 7.75-5.67 5.36 1.17 6 7.21 4.55 10.55a8.86 8.86 0 0 1-9 5 10.4 10.4 0 0 1-8.65-10.9c.56-5 4.61-10.34 12.4-9.56 10.42 1 12 10.5 10.88 15.05-1.49 6.26-7.67 11.37-14.35 11A15 15 0 0 1 43.4 70c0-9.42 7.94-17.51 17-16.73"/><path class="cls-1" d="M73.12 54.13l-6.64.45 3.68-5.55-2.49-6.17 6.41 1.79 5.11-4.27.28 6.64 5.64 3.54-6.24 2.32-1.62 6.46-4.13-5.21zM22.88 75.57l-6.29-2.15 5.53-3.69.1-6.65 5.22 4.12 6.36-1.96-2.31 6.24 3.83 5.44-6.65-.27-3.99 5.33-1.8-6.41z"/></g></g></g></svg>