<svg xmlns="http://www.w3.org/2000/svg" viewBox="0 0 100 100"><defs><style>.cls-1,.cls-5{fill:none}.cls-2{clip-path:url(#clip-path)}.cls-3{fill:#00aaa1}.cls-4{fill:#007f7f}.cls-5{stroke:#00aaa1;stroke-linecap:round;stroke-linejoin:round;stroke-width:2px}</style><clipPath id="clip-path"><path class="cls-1" d="M15.56 18.78h68.89v62.43H15.56z"/></clipPath></defs><title>category_painting</title><g id="Decorations"><g id="decoration--painting-pane"><g id="decoration--painting-pane-2" data-name="decoration--painting-pane"><g class="cls-2"><path class="cls-3" d="M49.89 89.7a5.15 5.15 0 0 1-3.63-1.51l-.65-.65a.5.5 0 0 1-.15-.35V38.94a.5.5 0 0 1 .5-.5h7.98a.51.51 0 0 1 .38.48v48.26a.5.5 0 0 1-.15.35l-.66.66a5.16 5.16 0 0 1-3.63 1.5z"/><path class="cls-4" d="M48.36 38.93h5.46v48.25l-.66.66a4.66 4.66 0 0 1-3.28 1.36 4.66 4.66 0 0 1-3.28-1.36l-.6-.65V38.94h2.41m0-1H46a1 1 0 0 0-1 1v48.25a1 1 0 0 0 .29.71l.65.65a5.64 5.64 0 0 0 8 0l.66-.66a1 1 0 0 0 .29-.71V38.93a1 1 0 0 0-1-1h-5.53z"/><path class="cls-3" d="M48.09 30.4a.5.5 0 0 1-.49-.62l1.8-7.58a.5.5 0 0 1 .49-.38.5.5 0 0 1 .49.39l1.79 7.58a.5.5 0 0 1-.49.61z"/><path class="cls-4" d="M49.88 22.32l1.79 7.58h-3.58l1.8-7.58m0-1a1 1 0 0 0-1 .77l-1.8 7.58a1 1 0 0 0 1 1.23h3.59a1 1 0 0 0 1-1.23l-1.79-7.58a1 1 0 0 0-1-.77z"/><path class="cls-3" d="M46 39.44a.5.5 0 0 1-.49-.61l2.13-9a.5.5 0 0 1 .49-.39h3.58a.5.5 0 0 1 .49.39l2.13 9a.5.5 0 0 1-.49.61z"/><path class="cls-4" d="M51.67 29.9l2.13 9H46l2.13-9h3.58m0-1h-3.62a1 1 0 0 0-1 .77l-2.13 9a1 1 0 0 0 1 1.23h7.84a1 1 0 0 0 1-1.23l-2.13-9a1 1 0 0 0-1-.77z"/><path class="cls-3" d="M27.06 53.33a4.88 4.88 0 0 1-2.54-.79l-.16-.09c-2.48-1.6-5.45-5.86-6.07-10.61a14.32 14.32 0 0 1-.11-1.43c-.2-7.29 4.25-15.58 9.52-17.73l.42-.16h.16a.5.5 0 0 1 .45.73c-1.6 3.15-1.28 6.39 1 9.6a21.84 21.84 0 0 1 2 3.61c2.34 5.28 2.25 10.84-.25 14.15a8.7 8.7 0 0 1-.51.63 7.42 7.42 0 0 1-.9.89 4.62 4.62 0 0 1-3.01 1.2z"/><path class="cls-4" d="M28.29 23c-1.77 3.49-1.19 7 1 10.11a21.24 21.24 0 0 1 2 3.53c2.3 5.19 2.13 10.56-.19 13.65-.16.22-.32.41-.49.6a6.87 6.87 0 0 1-.84.83 4.14 4.14 0 0 1-2.7 1.11 4.36 4.36 0 0 1-2.28-.71l-.16-.12c-2.28-1.47-5.23-5.53-5.84-10.25a13.74 13.74 0 0 1-.11-1.38c-.2-7.24 4.23-15.23 9.21-17.26l.4-.15m0-1A1 1 0 0 0 28 22l-.45.17c-5.45 2.23-10 10.74-9.84 18.21a14.72 14.72 0 0 0 .11 1.47c.64 4.91 3.72 9.32 6.29 11l.2.12a5.35 5.35 0 0 0 2.78.84 5.12 5.12 0 0 0 3.34-1.35 7.76 7.76 0 0 0 .95-.94c.17-.2.35-.41.53-.65 2.61-3.46 2.73-9.22.31-14.66a22.25 22.25 0 0 0-2.08-3.7c-2.13-3.05-2.44-6.11-.93-9.09a1 1 0 0 0-.92-1.42zm0 2z"/><path class="cls-3" d="M45.31 131.5a1.74 1.74 0 0 1-1.65-1.24l-.39-1.26c-3.86-12.18-14.12-44.52-16.08-58.77a.5.5 0 0 1 .39-.56L34 68.29l.94-.2.83-.19h.11a.5.5 0 0 1 .48.36c3 10.44 6 30.67 8.47 46.92.79 5.29 1.53 10.28 2.18 14.28a1.8 1.8 0 0 1-.34 1.36 1.68 1.68 0 0 1-1.12.67h-.24z"/><path class="cls-4" d="M35.88 68.39c4 13.84 8 45 10.64 61.14a1.26 1.26 0 0 1-1.06 1.47h-.15a1.25 1.25 0 0 1-1.17-.89C40.6 118.94 29.71 84.9 27.69 70.19l6.42-1.41.89-.19.87-.19m0-1h-.22l-.81.18h-.12l-.83.18-6.43 1.41a1 1 0 0 0-.78 1.11c2 14.29 12.23 46.66 16.09 58.84l.39 1.24a2.24 2.24 0 0 0 2.15 1.64h.33a2.18 2.18 0 0 0 1.43-.86 2.31 2.31 0 0 0 .43-1.75c-.65-4-1.39-9-2.18-14.28-2.42-16.27-5.44-36.51-8.48-47a1 1 0 0 0-1-.72z"/><path class="cls-3" d="M27.53 70.71a1.17 1.17 0 0 1-1.16-1l-2.26-17a1.16 1.16 0 0 1 .89-1.28l4.26-.94h.06l.69-.15h.24a1.23 1.23 0 0 1 .57.14 1.11 1.11 0 0 1 .55.65l5.49 16.25a1.18 1.18 0 0 1-.09 1 1.16 1.16 0 0 1-.77.56l-1.36.3-.45.1-6.42 1.41h-.07z"/><path class="cls-4" d="M30.27 50.81a.65.65 0 0 1 .28.08.63.63 0 0 1 .32.37l5.54 16.24a.67.67 0 0 1-.49.88l-1.32.29-.45.09-6.42 1.41h-.15a.67.67 0 0 1-.66-.6l-2.26-17a.66.66 0 0 1 .52-.72l4.27-.85.69-.15h.13m0-1h-.35l-.69.15h-.09l-4.24.93a1.66 1.66 0 0 0-1.3 1.82l2.26 17a1.66 1.66 0 0 0 1.65 1.46h.37l6.42-1.41.44-.09 1.33-.3a1.67 1.67 0 0 0 1.26-2.19l-5.46-16.28a1.68 1.68 0 0 0-1.5-1.13z"/><path class="cls-3" d="M20.63 43a3.13 3.13 0 0 1-2.2-.9 4 4 0 0 1-1.11-2.68c-.2-3.63 2.36-13.74 9.92-17.24l.62-.27a1 1 0 0 1 1.32 1.33c-1 2.46-1.39 5.53 2.26 11.35a2.49 2.49 0 0 1 .31 2.19 2.07 2.07 0 0 1-2 1.3 3.74 3.74 0 0 1-1.86-.56 2.52 2.52 0 0 0-1.26-.37 3 3 0 0 0-2.66 2.72A3.38 3.38 0 0 1 20.63 43z"/><path class="cls-4" d="M28.23 22.38a.52.52 0 0 1 .48.71C27.56 26 27.5 29.29 31 34.89a2 2 0 0 1 .26 1.74 1.57 1.57 0 0 1-1.54 1 3.26 3.26 0 0 1-1.61-.49 3 3 0 0 0-1.51-.43 3.51 3.51 0 0 0-3.15 3.15 2.91 2.91 0 0 1-2.82 2.69 2.63 2.63 0 0 1-1.85-.75 3.46 3.46 0 0 1-1-2.35c-.21-3.74 2.38-13.4 9.63-16.76l.59-.26a.52.52 0 0 1 .19 0m0-1a1.51 1.51 0 0 0-.56.11l-.64.28c-7.62 3.53-10.45 13.44-10.2 17.72a4.45 4.45 0 0 0 1.26 3 3.63 3.63 0 0 0 2.55 1A3.92 3.92 0 0 0 24.44 40c.17-1.1 1-2.3 2.16-2.3a2 2 0 0 1 1 .3 4.23 4.23 0 0 0 2.11.63 2.56 2.56 0 0 0 2.5-1.63 3 3 0 0 0-.35-2.63c-3.53-5.63-3.15-8.57-2.22-10.9a1.52 1.52 0 0 0-1.41-2.08z"/><path class="cls-3" d="M77.7 43.73h-.1l-10.87-2.15a.5.5 0 0 1-.36-.28 5.67 5.67 0 0 1-.32-2.3v-.62A49.6 49.6 0 0 1 66.9 32c0-.25.09-.52.14-.79l.09-.47c.37-2 .78-3.94 1.15-5.73l.46-2.29a.5.5 0 0 1 .49-.4h.1l12.87 2.57a.5.5 0 0 1 .39.59c-.09.44-.18 1-.29 1.56l-.17 1c-.34 1.94-.75 4.34-1.23 6.72-1 5.13-1.94 8-2.85 8.87a.5.5 0 0 1-.35.1z"/><path class="cls-4" d="M69.23 22.85l12.87 2.53c-.09.44-.18 1-.29 1.57-.35 2-.84 4.88-1.4 7.66-.78 3.9-1.73 7.62-2.71 8.62l-10.87-2.14a5.28 5.28 0 0 1-.28-2.09v-.61a50.2 50.2 0 0 1 .82-6.26c.06-.37.13-.75.2-1.12v-.13c.37-2 .78-3.93 1.15-5.72.16-.81.32-1.58.46-2.29m0-1a1 1 0 0 0-1 .81c-.13.69-.29 1.43-.44 2.2v.09c-.38 1.85-.78 3.81-1.15 5.73v.12l-.07.39c0 .26-.09.51-.14.77a50 50 0 0 0-.83 6.38v.67a5.93 5.93 0 0 0 .36 2.5 1 1 0 0 0 .72.57l10.87 2.13h.19a1 1 0 0 0 .71-.3c.67-.68 1.62-2.32 3-9.12.48-2.37.9-4.77 1.23-6.7l.17-1c.1-.59.2-1.12.29-1.55a1 1 0 0 0-.79-1.17l-12.88-2.52h-.19z"/><path class="cls-3" d="M54.37 136.22a1.77 1.77 0 0 1-.35 0 1.82 1.82 0 0 1-1.45-2.06l10.29-67.69a.5.5 0 0 1 .49-.42h.1l8.05 1.58a.5.5 0 0 1 .39.61l-15.74 66.57a1.79 1.79 0 0 1-.79 1.11 1.75 1.75 0 0 1-.59.24 1.72 1.72 0 0 1-.4.06z"/><path class="cls-4" d="M63.36 66.54l8.05 1.58-15.75 66.58a1.3 1.3 0 0 1-.57.81 1.25 1.25 0 0 1-.42.17 1.27 1.27 0 0 1-.3 0h-.25a1.32 1.32 0 0 1-1.05-1.5l10.29-67.64m0-1a1 1 0 0 0-1 .85L52.08 134a2.32 2.32 0 0 0 2.29 2.67 2.28 2.28 0 0 0 .54-.07 2.19 2.19 0 0 0 .71-.3 2.29 2.29 0 0 0 1-1.43l15.76-66.52a1 1 0 0 0-.78-1.21l-8.05-1.58h-.19z"/><path class="cls-3" d="M71.19 69a1.66 1.66 0 0 1-.31 0l-7.39-1.45a1.62 1.62 0 0 1-1.3-1.81l3.23-24.29A1.64 1.64 0 0 1 67 40a1.61 1.61 0 0 1 .31 0l10.29 2a1.63 1.63 0 0 1 1.07.73 1.61 1.61 0 0 1 .22 1.27l-6.13 23.74a1.9 1.9 0 0 1-.11.29 1.64 1.64 0 0 1-1.46.97z"/><path class="cls-4" d="M67 40.47h.22l10.29 2a1.12 1.12 0 0 1 .87 1.39l-1.66 6.43-4.46 17.3a1.35 1.35 0 0 1-.08.2 1.12 1.12 0 0 1-1 .64h-.22L63.58 67a1.12 1.12 0 0 1-.9-1.25l2.17-16.29v-.32l1-7.68a1.13 1.13 0 0 1 1.12-1m0-1a2.14 2.14 0 0 0-2.11 1.84l-1 7.69v.31l-2.17 16.3a2.13 2.13 0 0 0 1.7 2.4l7.39 1.45a2.12 2.12 0 0 0 2.32-1.17 2.37 2.37 0 0 0 .14-.36l4.47-17.32 1.66-6.43a2.12 2.12 0 0 0-1.65-2.62l-10.29-2a2.12 2.12 0 0 0-.41 0z"/><path class="cls-3" d="M79.2 35.63a2 2 0 0 1-1.8-1.25 1.27 1.27 0 0 0-1.1-.73 1.21 1.21 0 0 0-.79.31 2.39 2.39 0 0 1-1.51.64 2 2 0 0 1-1.8-1.25 1.26 1.26 0 0 0-1.1-.73 1.21 1.21 0 0 0-.79.31 2.39 2.39 0 0 1-1.54.64 2 2 0 0 1-1.79-1.23.5.5 0 0 1 0-.31c0-.26.09-.53.14-.79l.09-.47c.24-1.21.48-2.41.71-3.56l.51-2.55c.14-.67.27-1.31.38-1.91a.5.5 0 0 1 .49-.4h.1l12.8 2.54a.5.5 0 0 1 .39.59c-.09.44-.18 1-.29 1.56s-.26 1.45-.41 2.29c-.29 1.62-.62 3.48-1 5.38a.51.51 0 0 1-.17.29 2.39 2.39 0 0 1-1.52.63z"/><path class="cls-4" d="M69.23 22.85l12.87 2.53c-.09.44-.18 1-.29 1.57-.37 2-.85 4.77-1.4 7.66a1.9 1.9 0 0 1-1.21.52 1.55 1.55 0 0 1-1.36-1 1.76 1.76 0 0 0-1.54-1 1.7 1.7 0 0 0-1.12.44 1.9 1.9 0 0 1-1.18.53 1.55 1.55 0 0 1-1.36-1 1.76 1.76 0 0 0-1.54-1 1.7 1.7 0 0 0-1.12.44 1.9 1.9 0 0 1-1.21.52 1.53 1.53 0 0 1-1.34-1c.06-.37.13-.75.2-1.12v-.13c.39-2 .79-3.94 1.15-5.72.16-.81.32-1.58.46-2.29m0-1a1 1 0 0 0-1 .81c-.13.69-.29 1.43-.44 2.2v.08L67.37 27c-.24 1.18-.49 2.41-.73 3.66v.13l-.07.39c0 .26-.09.51-.14.77a1 1 0 0 0 .1.62 2.53 2.53 0 0 0 2.23 1.5 2.88 2.88 0 0 0 1.87-.76.71.71 0 0 1 .46-.19.77.77 0 0 1 .65.46A2.54 2.54 0 0 0 74 35.1a2.88 2.88 0 0 0 1.87-.76.71.71 0 0 1 .46-.19.77.77 0 0 1 .65.46 2.54 2.54 0 0 0 2.25 1.52 2.88 2.88 0 0 0 1.87-.76 1 1 0 0 0 .33-.57c.37-1.91.7-3.76 1-5.39.15-.83.29-1.6.41-2.28s.2-1.13.29-1.56a1 1 0 0 0-.79-1.17l-12.92-2.53h-.19z"/></g><path class="cls-5" d="M25.92 81.22h46.8"/></g></g></g></svg>