<svg id="Editor_assets" data-name="Editor assets" xmlns="http://www.w3.org/2000/svg" viewBox="0 0 100 100"><defs><style>.cls-1{fill:none}.cls-2{fill:#fff}.cls-3{clip-path:url(#clip-path)}.cls-4{fill:#c47c1c}.cls-5{fill:#b76711}.cls-6{fill:#dd8e1b}</style><clipPath id="clip-path"><path class="cls-1" d="M91.62 19.51v61A11.12 11.12 0 0 1 80.5 91.63h-61a10.9 10.9 0 0 1-5-1.18 11.13 11.13 0 0 1-6.12-9.95v-61A11.12 11.12 0 0 1 19.5 8.38h61a11.12 11.12 0 0 1 11.12 11.13z"/></clipPath></defs><title>color_picker</title><g id="color_picker"><path class="cls-2" d="M91.62 19.51v61A11.12 11.12 0 0 1 80.5 91.63h-61a10.9 10.9 0 0 1-5-1.18 11.13 11.13 0 0 1-6.12-9.95v-61A11.12 11.12 0 0 1 19.5 8.38h61a11.12 11.12 0 0 1 11.12 11.13z"/><g class="cls-3"><path class="cls-2" d="M24.53 50.91a3.63 3.63 0 1 1 3-4.16 3.61 3.61 0 0 1-3 4.16zM33.26 39a4.38 4.38 0 1 1 3.63-5 4.37 4.37 0 0 1-3.63 5zm17.22-2a5.17 5.17 0 1 1 4.28-5.93A5.18 5.18 0 0 1 50.48 37zm18.3 7.9a5.9 5.9 0 1 1 4.89-6.77 5.9 5.9 0 0 1-4.89 6.77z" id="color_spots"/><path class="cls-4" d="M68.16 27.13C49 18.13 27.42 20.57 18.57 37 9.82 53.3 20.74 67.89 30.7 73.49c16.19 9.1 24.42 2.92 19.3-2.38C43.1 64 48.56 58 56.31 60.85c13.17 4.82 25 1.2 27.57-6.21 3.01-8.64-3.32-21.69-15.72-27.51zM24.53 50.91a3.63 3.63 0 1 1 3-4.16 3.61 3.61 0 0 1-3 4.16zM33.26 39a4.38 4.38 0 1 1 3.63-5 4.37 4.37 0 0 1-3.63 5zm17.22-2a5.17 5.17 0 1 1 4.28-5.93A5.18 5.18 0 0 1 50.48 37zm18.3 7.88a5.9 5.9 0 1 1 4.89-6.77 5.9 5.9 0 0 1-4.89 6.79z"/><path class="cls-5" d="M51.32 73.16c-1.23 3.35-8.81 4.84-20.61-1.8-7.16-4-14.8-12.67-15.3-23.25-.51 11.54 7.67 21.09 15.3 25.38 14.1 7.92 22.16 4.26 20.61-.33zm33.27-24.21a13.54 13.54 0 0 1-.7 3.57c-2.57 7.41-14.41 11-27.58 6.2-5.75-2.1-10.24.64-9.36 5.11.69-3.14 4.59-4.73 9.36-3 13.17 4.82 25 1.2 27.58-6.21a14.44 14.44 0 0 0 .7-5.67z"/><path class="cls-6" d="M68.17 27.13C49 18.13 27.43 20.57 18.58 37a25 25 0 0 0-3.18 13 25.46 25.46 0 0 1 3.18-11.21C27.43 22.4 49 20 68.17 29c9.95 4.68 16 14 16.43 22 .48-8.4-5.71-18.83-16.43-23.87z"/></g></g></svg>