<svg xmlns="http://www.w3.org/2000/svg" viewBox="0 0 80 80"><title>pointer_tool_select</title><path d="M55.61 77.9h-.16a.5.5 0 0 1-.29-.25l-5.87-11.78-7 8.26a.5.5 0 0 1-.38.18h-.16a.5.5 0 0 1-.34-.44L39.1 38.64a.5.5 0 0 1 .82-.41l26.8 22.94a.5.5 0 0 1-.29.88l-10.83.67 5.87 11.75a.5.5 0 0 1-.22.67l-5.42 2.71a.5.5 0 0 1-.22.05z" fill="#3e3b31"/><path d="M39.6 38.6l26.8 22.94-11.58.71L61 74.68l-5.39 2.72L49.4 65l-7.53 8.83L39.6 38.6m0-1a1 1 0 0 0-1 1.06l2.27 35.2a1 1 0 0 0 1.76.58l6.55-7.68 5.53 11.07a1 1 0 0 0 1.34.45l5.42-2.71a1 1 0 0 0 .45-1.34l-5.53-11.07 10.07-.62a1 1 0 0 0 .59-1.76l-26.8-22.94a1 1 0 0 0-.65-.24z" fill="#ffc62b"/></svg>