<svg xmlns="http://www.w3.org/2000/svg" viewBox="0 0 100 100"><defs><style>.cls-1{fill:none}.cls-2{fill:#fff}.cls-3{fill:#490f00}.cls-4{fill:#cc6517}.cls-5{fill:#fb8e25}.cls-6{fill:#db7519}.cls-7{fill:#960000}.cls-8{fill:#bc1518}.cls-10,.cls-11,.cls-9{fill:#ff5100}.cls-10{opacity:.5}.cls-11{opacity:.25}.cls-12{clip-path:url(#clip-path)}.cls-13{fill:#229947}.cls-14{fill:#0f844f}.cls-15{fill:#4fc64f}.cls-16{clip-path:url(#clip-path-2)}.cls-17{fill:#00adad}.cls-18{fill:#3cd3cf}.cls-19{fill:#00938f}</style><clipPath id="clip-path"><path class="cls-1" d="M221.62-110.49v61a11.12 11.12 0 0 1-11.12 11.12h-61a10.9 10.9 0 0 1-5-1.18 11 11 0 0 1-5-5.11 11.09 11.09 0 0 1-1.11-4.84v-61a11.12 11.12 0 0 1 11.12-11.13h61a11.12 11.12 0 0 1 11.11 11.14z"/></clipPath><clipPath id="clip-path-2"><path class="cls-1" d="M91.62-110.49v61A11.12 11.12 0 0 1 80.5-38.37h-61a10.9 10.9 0 0 1-5-1.18 11 11 0 0 1-5-5.11 11.09 11.09 0 0 1-1.12-4.84v-61a11.12 11.12 0 0 1 11.12-11.12h61a11.12 11.12 0 0 1 11.12 11.13z"/></clipPath></defs><title>tool_stamp</title><g id="Tools"><g id="tool--stamp"><path class="cls-2" d="M91.62 19.51v61A11.12 11.12 0 0 1 80.5 91.63h-61a10.9 10.9 0 0 1-5-1.18 11.13 11.13 0 0 1-6.12-9.95v-61A11.12 11.12 0 0 1 19.5 8.38h61a11.12 11.12 0 0 1 11.12 11.13z"/><path class="cls-3" d="M76 83.45H24.44a1 1 0 0 1-1-1V79.9h53.64v2.5A1 1 0 0 1 76 83.45z"/><path class="cls-4" d="M77 81.49H23.21A1.52 1.52 0 0 1 21.69 80l-.17-7.11h56.91v7a1.52 1.52 0 0 1-1.43 1.6z"/><path class="cls-5" d="M77.38 74H22.59a1.07 1.07 0 0 1-1-1.37l5.53-19.14a1.08 1.08 0 0 1 1-.76h43.73a1.08 1.08 0 0 1 1 .76l2.85 9.87 2.68 9.3a1.06 1.06 0 0 1-1 1.34z"/><path class="cls-6" d="M77.38 74h-4.55l-28-10.21 6.17-4 24.74 3.55 2.68 9.3A1.06 1.06 0 0 1 77.38 74z"/><path class="cls-7" d="M61.51 31s-1.49 1.81-3 6.52-3 12.34-3 24a2.9 2.9 0 0 1-1.79 2.33 9.33 9.33 0 0 1-4.34 1 9.93 9.93 0 0 1-3.38-.61 5.2 5.2 0 0 1-1-.41l-.25-.15a2.73 2.73 0 0 1-1.54-2.18c0-23.27-6-30.5-6-30.5z"/><path class="cls-8" d="M61.52 30.51c0 2.64-5.43 4.78-12.12 4.78s-12.12-2.14-12.12-4.78v-9.06c0-2.64 5.43-4.78 12.12-4.78s12.12 2.14 12.12 4.78z"/><ellipse class="cls-9" cx="49.39" cy="21.33" rx="12.12" ry="4.78"/><path class="cls-10" d="M41.09 24.83l-.15 9.11 3.29.93.28-9.16-3.42-.88z"/><path class="cls-11" d="M46 64.24a5.2 5.2 0 0 1-1-.41l-.25-.15c.25-7.94-.27-24.79-3.75-29.73.18 0 1.62.46 3.27.93 2.35 4.51 2.37 20.63 1.73 29.36z"/></g><g id="tool--translucent-brush"><g class="cls-12" id="tool--translucent-brush-2" data-name="tool--translucent-brush"><path class="cls-13" d="M156.6-48.56L72.14 29.63a2.19 2.19 0 0 1-1.55.6 2.11 2.11 0 0 1-.75-.15 2.14 2.14 0 0 1-.79-.5A2.22 2.22 0 0 1 69 26.5l77.85-84.82z"/><path class="cls-14" d="M156.6-48.56L72.14 29.63a2.19 2.19 0 0 1-1.55.6 2.11 2.11 0 0 1-.75-.15l83.51-81 2 1.06z"/><path class="cls-15" d="M146.85-55.07l1.92 1.92-76.21 78.42-.46-.47 74.75-79.87z"/></g></g><g id="tool--solid-brush"><g class="cls-16" id="tool--solid-brush-2" data-name="tool--solid-brush"><path class="cls-17" d="M30.17-51.72C14.24-33.49-26.28.42-46.71 18.71a2.11 2.11 0 0 1-3-.17 2.09 2.09 0 0 1 .08-2.63C-37.09.76 1.22-45.5 20.21-61.68l7.79 7.8 1.07 1.08z"/><path class="cls-18" d="M20.67-59.32c-5.47 5.71-54.84 56.67-67 73.17C-31.78-.91 20.37-53.9 23.3-56.71l-2.63-2.61z"/><path class="cls-19" d="M30.17-51.72C14.24-33.49-26.28.42-46.71 18.71a2.11 2.11 0 0 1-3-.17c8.26-6.31 73.3-66.6 77.74-72.42l1.07 1.08z"/></g></g></g></svg>