<svg xmlns="http://www.w3.org/2000/svg" viewBox="0 0 100 100"><defs><clipPath id="a"><path d="M91.62 19.51v61A11.12 11.12 0 0 1 80.5 91.63h-61a10.9 10.9 0 0 1-5-1.18 11.13 11.13 0 0 1-6.12-9.95v-61A11.12 11.12 0 0 1 19.5 8.38h61a11.12 11.12 0 0 1 11.12 11.13z" fill="none"/></clipPath></defs><title>tool_coloring_pages</title><g style="isolation:isolate"><path d="M91.62 19.51v61A11.12 11.12 0 0 1 80.5 91.63h-61a10.9 10.9 0 0 1-5-1.18 11.13 11.13 0 0 1-6.12-9.95v-61A11.12 11.12 0 0 1 19.5 8.38h61a11.12 11.12 0 0 1 11.12 11.13z" fill="#fff"/><g clip-path="url(#a)"><path d="M81.38 19.2v79a1.16 1.16 0 0 1-1.24 1.16l-61.46-6.04a1.16 1.16 0 0 1-1.09-1.17V21a1.17 1.17 0 0 1 .54-1l6.31-4a1.15 1.15 0 0 1 .67-.18L80.26 18a1.16 1.16 0 0 1 1.12 1.2z" fill="#008187"/><path fill="#fffde1" d="M22.24 20.75l3.93-2.73 53.25 2.91v73.86l-18.87-8.16-38.31-65.88z"/><path style="mix-blend-mode:multiply" fill="#c1baac" opacity=".5" d="M23.16 20.11l52.64 4.21 3.62-3.39v73.86l-9.54-1.51-47.64-72.53.92-.64z"/><path d="M75.11 26.5V95a1.16 1.16 0 0 1-1.17 1.16l-55.19-1.92a1.16 1.16 0 0 1-1.16-1.16V21.61a1.16 1.16 0 0 1 1.27-1.16l.94.08L74 25.34a1.16 1.16 0 0 1 .79.41 1.14 1.14 0 0 1 .32.75z" fill="#06ba8f"/><path d="M81.38 19.2L25.6 16.74a.64.64 0 0 0-.4.11l-5.38 3.67-1.48 1.15-.73.56V21a1.17 1.17 0 0 1 .54-1l6.31-4a1.15 1.15 0 0 1 .67-.18L80.26 18a1.13 1.13 0 0 1 .95.56 1.11 1.11 0 0 1 .17.64z" fill="#06ba8f"/><path fill="#a4ef00" d="M17.59 27.15l1.54.15v22.5l-1.54-.15v-22.5zm56.13 5.29v22.82l-53.17-5.31V27.43l53.17 5.01z"/><path d="M26.75 30.66c1 .1 2.18.5 2.18 1.36a.66.66 0 0 1-.7.71c-.38 0-.79-.42-1.43-.49-1.33-.13-1.85.9-1.84 2a2.1 2.1 0 0 0 1.72 2.31c1 .1 1.18-.22 1.61-.18a.79.79 0 0 1 .73.83c0 .91-1.36 1.09-2.26 1a4 4 0 0 1-3.57-4.13c-.01-2.18 1.39-3.63 3.56-3.41zm9.54 4.72c0 2.3-1.39 3.65-3.52 3.44a3.9 3.9 0 0 1-3.57-4.13c0-2.3 1.39-3.65 3.52-3.44a3.9 3.9 0 0 1 3.57 4.13zM31 34.85a2.18 2.18 0 0 0 1.79 2.43c1.27.13 1.78-.93 1.77-2.08a2.18 2.18 0 0 0-1.79-2.44c-1.3-.11-1.77.94-1.77 2.09zm5.88-2.22a.7.7 0 0 1 .82-.79.89.89 0 0 1 .83 1v4.91l1.76.17a.82.82 0 0 1 .83.84.66.66 0 0 1-.82.68l-2.58-.25a.9.9 0 0 1-.83-.9zm11.42 3.93c0 2.3-1.39 3.65-3.52 3.44a3.9 3.9 0 0 1-3.57-4.14c0-2.3 1.39-3.65 3.52-3.44a3.9 3.9 0 0 1 3.57 4.14zM43 36a2.18 2.18 0 0 0 1.79 2.43c1.27.13 1.78-.93 1.77-2.08A2.18 2.18 0 0 0 44.74 34c-1.26-.17-1.74.89-1.74 2zm5.89-2.18a.7.7 0 0 1 .82-.74l2 .19a2.49 2.49 0 0 1 2.42 2.49 1.74 1.74 0 0 1-1.67 1.87l1.44 1.69a1.14 1.14 0 0 1 .35.75.72.72 0 0 1-.84.68 1 1 0 0 1-.78-.48l-2-2.75v2.09a.7.7 0 0 1-.82.79.88.88 0 0 1-.83-1zm1.65 2.46l1.08.11a.69.69 0 0 0 .84-.73.88.88 0 0 0-.85-.87l-1.08-.11zm5.84 3.88c0 .58-.34.84-.82.79a.88.88 0 0 1-.83-1v-5.62a.7.7 0 0 1 .82-.79.88.88 0 0 1 .83 1zm.75-5.54a.7.7 0 0 1 .81-.79c.44 0 .59.25 1.14 1l2.74 3.7v-3.44a.7.7 0 0 1 .82-.79.88.88 0 0 1 .83 1v5.62a.7.7 0 0 1-.82.79c-.44 0-.6-.25-1.14-1L58.81 37v3.44a.7.7 0 0 1-.82.79.88.88 0 0 1-.83-1zM70 38c.57.06.87.41.88 1.09a2.87 2.87 0 0 1-3.26 3.13 4 4 0 0 1-3.57-4.13 3.15 3.15 0 0 1 3.52-3.44c1.36.13 2.8.84 2.8 1.86a.6.6 0 0 1-.74.62c-.6-.06-.88-.84-2-.95s-1.85.82-1.84 2.08a2.23 2.23 0 0 0 1.84 2.44 1.31 1.31 0 0 0 1.53-1.25l-.94-.09a.83.83 0 0 1-.82-.84c0-.48.3-.73.82-.68zm-36 4.35a.71.71 0 0 1 .82-.74l1.93.19a2.09 2.09 0 0 1 2 2.09 1.42 1.42 0 0 1-.85 1.3 2 2 0 0 1 1.46 1.92c0 1.15-.73 2.12-2.5 1.94l-2-.2a.9.9 0 0 1-.83-.9zm1.65 2.17l.75.07c.47 0 .75-.16.75-.61a.73.73 0 0 0-.75-.75l-.75-.07zm0 3l1 .1c.55.05 1-.1 1-.64s-.51-.79-1-.84l-1-.1zm11.28-1.1c0 2.3-1.39 3.65-3.52 3.44a3.9 3.9 0 0 1-3.57-4.13c0-2.3 1.39-3.65 3.52-3.44a3.9 3.9 0 0 1 3.57 4.13zm-5.33-.52a2.18 2.18 0 0 0 1.79 2.43c1.27.13 1.78-.93 1.77-2.08a2.18 2.18 0 0 0-1.8-2.43c-1.25-.13-1.76.93-1.75 2.08zm12.85 1.26c0 2.3-1.39 3.65-3.52 3.44a3.9 3.9 0 0 1-3.57-4.13c0-2.3 1.39-3.65 3.52-3.44a3.9 3.9 0 0 1 3.57 4.13zm-5.33-.52a2.18 2.18 0 0 0 1.79 2.43c1.27.13 1.78-.93 1.77-2.08a2.18 2.18 0 0 0-1.79-2.44c-1.27-.12-1.78.94-1.77 2.08zM55 44.41a.7.7 0 0 1 .82-.79.88.88 0 0 1 .83 1v2l2.24-2.25a.83.83 0 0 1 .81-.37 1 1 0 0 1 .82.88.91.91 0 0 1-.32.63l-1.94 1.78 2.15 2.54a1.39 1.39 0 0 1 .46.84.71.71 0 0 1-.86.73c-.44 0-.75-.47-1-.79l-2.3-2.81v2.4a.7.7 0 0 1-.82.79.88.88 0 0 1-.83-1z" opacity=".5" fill="#2aad3a"/><path d="M69.21 78.49c-1.3-12.37-12.39-22.41-24.76-22.41s-21.35 10-20.05 22.41 12.38 22.41 24.75 22.41 21.36-10.03 20.06-22.41z" fill="#fffde1"/><g opacity=".85"><path d="M28.78 76.54a35.82 35.82 0 0 1 5.62-2.28c1-.31 2-.56 3-.79.52-.1 1-.2 1.6-.27h.21a2.38 2.38 0 0 1 .58 0 2.2 2.2 0 0 1 1.35.71 2.36 2.36 0 0 1 .55 1.09 2.27 2.27 0 0 1-.16 1.38 2.41 2.41 0 0 1-.79.93l-.31.23-.61.44-1.21.87-2.38 1.75a44.77 44.77 0 0 0-4.4 3.68l-.45.47-.19.23-.1.11a1 1 0 0 0 .08-.11 1.74 1.74 0 0 0 .09-.19 1.21 1.21 0 0 0 0-.8 1 1 0 0 0-.3-.46 1.09 1.09 0 0 0-.57-.26 1.2 1.2 0 0 0-.71.12c.92-.5 1.82-1 2.73-1.4 1.82-.89 3.64-1.74 5.5-2.56a61.34 61.34 0 0 1 5.76-2.26c.25-.09.53-.16.81-.23l.21-.06.27-.05a2 2 0 0 1 .37 0 2.41 2.41 0 0 1 1.4.48 2.47 2.47 0 0 1 .95 2.54 2.34 2.34 0 0 1-.94 1.38l-.36.24c-.79.51-1.55 1.08-2.31 1.66A33.89 33.89 0 0 0 39.91 87a23.21 23.21 0 0 0-1.76 2.15c-.26.37-.51.74-.71 1.1l-.08.14v-.09a1.75 1.75 0 0 0 .07-.2 1.27 1.27 0 0 0-.07-.81 1.11 1.11 0 0 0-1-.66 1.3 1.3 0 0 0-.76.22l.3-.21.6-.43 1.2-.87 2.46-1.76a44.5 44.5 0 0 1 5.31-3.29l.36-.18a2.36 2.36 0 0 1 3.3 1.48 2.28 2.28 0 0 1-.07 1.52 2.31 2.31 0 0 1-.41.66l-.12.14c-.14.15-.28.32-.43.5-.58.71-1.15 1.5-1.7 2.3-1.1 1.59-2.2 3.29-3.13 4.91l-.08.14v.07a.79.79 0 0 0 .05-.12 1.12 1.12 0 0 0 0-.72.93.93 0 0 0-.82-.64 1.11 1.11 0 0 0-.69.16l.31-.19.68-.4c.91-.48 1.8-1 2.73-1.37s1.84-.83 2.78-1.22c.47-.18.95-.37 1.43-.54a14.84 14.84 0 0 1 1.59-.48.89.89 0 0 1 .69 1.6l-.17.11-2.39 1.55-2.52 1.57-2.5 1.55-.6.38-.32.21a2.19 2.19 0 0 1-1.41.32 2.31 2.31 0 0 1-1.95-1.6 2.22 2.22 0 0 1 0-1.46 2.87 2.87 0 0 1 .13-.29v-.09l.1-.19c1-1.86 2.1-3.52 3.24-5.24.58-.85 1.16-1.69 1.83-2.53.17-.21.34-.43.54-.64l.12-.14a1.13 1.13 0 0 0-.22.34 1.19 1.19 0 0 0 0 .78 1 1 0 0 0 .85.74 1.19 1.19 0 0 0 .68-.09l-.3.16a41.36 41.36 0 0 0-4.81 3.1l-2.39 1.76-1.22.89-.62.45-.31.22-.11.07-.17.1a2.06 2.06 0 0 1-.37.16 2.28 2.28 0 0 1-.81.11 2.49 2.49 0 0 1-2.18-1.48 2.39 2.39 0 0 1-.15-1.55 2.06 2.06 0 0 1 .13-.38l.08-.18v-.06l.11-.19c.29-.51.59-1 .91-1.42a26.81 26.81 0 0 1 2-2.5 36.73 36.73 0 0 1 4.62-4.28c.84-.63 1.69-1.25 2.58-1.81l.27-.18a1.37 1.37 0 0 0-.53.78 1.14 1.14 0 0 0 .43 1.22 1.26 1.26 0 0 0 .7.24h.27-.15c-.21.06-.41.1-.63.18-1.76.54-3.6 1.31-5.4 2.07s-3.61 1.6-5.38 2.45c-.89.43-1.77.86-2.61 1.31a2.34 2.34 0 0 1-2.67-.3 2.44 2.44 0 0 1-.64-1.02 2.3 2.3 0 0 1 0-1.53 2 2 0 0 1 .17-.36 2.63 2.63 0 0 1 .18-.27l.15-.17.29-.34.59-.61a47.64 47.64 0 0 1 4.81-4l2.46-1.77 1.23-.86.61-.43.3-.21c.25-.19-.22.15-.28.4a1 1 0 0 0 .16 1.11 1.16 1.16 0 0 0 .71.36h.21-.16c-.43 0-.9.13-1.36.22-.93.17-1.87.4-2.83.6-1.91.42-3.83.86-5.87 1.12a1 1 0 0 1-.59-1.89z" fill="#006b91"/><path d="M51.75 80.54a11.48 11.48 0 0 1-2.25.4 38.37 38.37 0 0 1-4.2 0 1.71 1.71 0 0 1-.53-.09 1.8 1.8 0 0 1-1.17-1.66 1.46 1.46 0 0 1 .22-.85c2.56.86 5.18 1.59 7.93 2.2z" fill="#2d2b25"/><path d="M55.43 71a11.31 11.31 0 0 0-2-1.77l-.31-.23-.25-.16a13.19 13.19 0 0 0-5.36-1.93 10.36 10.36 0 0 0-1.19-.07 1.26 1.26 0 0 1 .67-.32l1.58-.27a12.58 12.58 0 0 1 3 1l.45.22a12.92 12.92 0 0 1 1.88 1.17 1.48 1.48 0 0 1-.58.18 1.61 1.61 0 0 1 .06.22h.28A2.09 2.09 0 0 1 55.43 71zm2 1.62a1.48 1.48 0 0 1-.26 1 11.13 11.13 0 0 0-1.62-2.48l-.11-.14h.28a1.72 1.72 0 0 1 .78.2 12.38 12.38 0 0 1 .93 1.42z" fill="#ffdc4a"/><path d="M65.81 82.16a4.33 4.33 0 0 0-.92-1.72c-1.51-1.68-4.39-2.64-6.21-4a11.07 11.07 0 0 0-1.26-3.85 12.38 12.38 0 0 0-.93-1.44 12.71 12.71 0 0 0-2.56-2.55 12.92 12.92 0 0 0-1.88-1.17l-.45-.22a12.58 12.58 0 0 0-3-1l-.63-.1c-5.41-.65-7.91 1.89-9.97 4.68-2.44-.53-9.3-1.14-9.65 1.07S30 75.09 31.28 76a22.72 22.72 0 0 0 4.9 2.68 12.69 12.69 0 0 0 11.69 10.23 11.8 11.8 0 0 0 9.55-4.08c3.14.41 9.07 1.1 8.39-2.67zm-18.37 5.79A11.89 11.89 0 0 1 37 79.15a125.57 125.57 0 0 0 19 5.48c-1.18 2.16-5.08 3.52-8.56 3.32zm17.06-4.08c-.91.63-4.5.49-6.09.32a61.13 61.13 0 0 1-6.35-1.39c-2.27-.5-4.79-1.14-7.29-1.87a68.45 68.45 0 0 1-10.37-3.81 21.25 21.25 0 0 1-3-2c-.85-.64-2.46-1.66-2.34-2.78.17-1.45 4.23-1.28 6.1-1.18 1 .05 2 0 2.53.54-.18.76-1.3.37-2.11.43-2.07.13-3.55 1.09-1.84 3a6.29 6.29 0 0 0 1.18 1 37.29 37.29 0 0 0 8.67 3.19 1.46 1.46 0 0 1 .22-.85c-2.37-.76-4.69-1.58-7-2.44 1.29-4.23 3.13-8.41 8.17-9a8.81 8.81 0 0 1 1.29-.06 10.36 10.36 0 0 1 1.19.07 13.19 13.19 0 0 1 5.36 1.93l.25.16.28.19a11.31 11.31 0 0 1 2 1.77l.11.12a11.13 11.13 0 0 1 1.62 2.48 7.65 7.65 0 0 1 .67 2c.35 2.08-.36 3.83-.22 6-2-.29-4-.66-5.86-1.08a11.48 11.48 0 0 1-2.25.4 38 38 0 0 0 7.57 1.64c1.83.14 3.47.1 4.09-.86-.05-1.81-1.14-2.48-2.45-2.89.08-.31 0-.76.11-1.07a4 4 0 0 1 1.78.64c1.21.53 6.48 3.66 3.98 5.4zM37 72.94c-.11 1-.79 1.48-.57 2.78-1.14-.52-2.36-.94-2.7-2.36a7.86 7.86 0 0 1 3.27-.42zm21.62 6.75a2.34 2.34 0 0 1 1.89 1.61c-.38.4-1.28.33-2.12.32a11.31 11.31 0 0 1 .19-1.93z" fill="#2d2b25" fill-rule="evenodd"/><path d="M46.81 77.16a1.91 1.91 0 0 0 .34.75c-.79 0-1.56-.06-2.18-.07a1.25 1.25 0 0 0-1.14.55c-2.37-.76-4.69-1.58-7-2.44A25.38 25.38 0 0 1 38.34 72c1.3-2.62 3.25-4.7 6.69-5.1a8.81 8.81 0 0 1 1.29-.06c-.62.59-.31 1.78.46 2.39-.74.13-1.35.24-1.51.28-1.63.41-1 3.32.74 3.09l.41-.05.81-.1a1.83 1.83 0 0 0 .13 1.09c-1.08.21-2.17.4-3.27.57l-.41.07c-1.84.28-.9 2.93.74 3.09h.42c.58.03 1.26-.05 1.97-.11z" fill="#fffde1" fill-rule="evenodd"/><path d="M64.5 83.87c-.91.63-4.5.49-6.09.32a61.13 61.13 0 0 1-6.35-1.39c-2.27-.5-4.79-1.14-7.29-1.87a68.45 68.45 0 0 1-10.37-3.81 21.25 21.25 0 0 1-3-2c-.85-.64-2.46-1.66-2.34-2.78.17-1.45 4.23-1.28 6.1-1.18 1 .05 2 0 2.53.54-.18.76-1.3.37-2.11.43-2.07.13-3.55 1.09-1.84 3a6.29 6.29 0 0 0 1.18 1 37.29 37.29 0 0 0 8.67 3.19 1.46 1.46 0 0 1 .22-.85 1.25 1.25 0 0 1 1.19-.64c.62 0 1.39.06 2.18.07a1.91 1.91 0 0 1-.34-.75c-.71.06-1.39.14-2 .14h-.42c-1.65-.16-2.59-2.81-.74-3.09l.41-.07c1.1-.17 2.19-.36 3.27-.57a1.83 1.83 0 0 1-.13-1.09l-.81.1-.41.05c-1.76.24-2.37-2.68-.74-3.09.16 0 .77-.15 1.51-.28-.78-.61-1.08-1.79-.46-2.39a10.36 10.36 0 0 1 1.19.07 13.19 13.19 0 0 1 5.36 1.93l.25.16.28.19a11.31 11.31 0 0 1 2 1.77l.11.12a11.13 11.13 0 0 1 1.62 2.48 7.65 7.65 0 0 1 .67 2c.35 2.08-.36 3.83-.22 6-2-.29-4-.66-5.86-1.08a11.48 11.48 0 0 1-2.25.4 38 38 0 0 0 7.57 1.64c1.83.14 3.47.1 4.09-.86-.05-1.81-1.14-2.48-2.45-2.89.08-.31 0-.76.11-1.07a4 4 0 0 1 1.78.64c1.16.64 6.43 3.77 3.93 5.51z" fill="#2d2b25" fill-rule="evenodd"/><path d="M57.61 81.62c-2-.29-4-.66-5.86-1.08-2.74-.62-5.37-1.35-7.92-2.16a1.25 1.25 0 0 1 1.17-.55c.62 0 1.39.06 2.18.07a1.91 1.91 0 0 1-.34-.75c-.71.06-1.39.14-2 .14h-.42c-1.65-.16-2.59-2.81-.74-3.09l.41-.07c1.1-.17 2.19-.36 3.27-.57a1.83 1.83 0 0 1-.13-1.09l-.81.1-.41.05c-1.76.24-2.37-2.68-.74-3.09.16 0 .77-.15 1.51-.28-.78-.61-1.08-1.79-.46-2.39a10.36 10.36 0 0 1 1.19.07 13.19 13.19 0 0 1 5.36 1.93l.25.16.28.19a11.31 11.31 0 0 1 2 1.77l.11.12a11.13 11.13 0 0 1 1.62 2.48 7.65 7.65 0 0 1 .67 2c.38 2.12-.32 3.87-.19 6.04zM56 84.63c-1.19 2.16-5.08 3.52-8.56 3.32A11.9 11.9 0 0 1 37 79.15a125.68 125.68 0 0 0 19 5.48z" fill="#efc71b" fill-rule="evenodd"/><path d="M64.5 83.87c-.91.63-4.5.49-6.09.32a60.91 60.91 0 0 1-6.36-1.39c-5.73-1.26-13.12-3.45-17.65-5.68a20.89 20.89 0 0 1-3-2c-.85-.64-2.46-1.66-2.34-2.78.17-1.45 4.23-1.27 6.1-1.18 1 .05 2 0 2.53.54-.18.76-1.3.37-2.1.42-2.07.13-3.55 1.09-1.83 3a6 6 0 0 0 1.18 1c2.92 1.71 6.63 2.6 10.68 3.76s8 2.53 11.46 2.79c1.83.14 3.47.1 4.09-.86 0-1.81-1.14-2.48-2.45-2.89.08-.31 0-.76.11-1.07a3.86 3.86 0 0 1 1.78.64c1.12.51 6.39 3.64 3.89 5.38z" fill="#ea8b00" fill-rule="evenodd"/></g><path fill="#2aad3a" d="M75.11 32.57V55.4l-1.39-.14V32.44l1.39.13z"/><path d="M75.11 26.4v6.17l-1.39-.13v-3.58a2 2 0 0 1 .84-1.64 1.18 1.18 0 0 0 .55-.82zm-1.39 28.86l1.39.14V95l-1.39-.16z" fill="#008187"/><path fill="#a4ef00" d="M20.55 27.43v22.52l-1.42-.15V27.3l1.42.13z"/><path d="M20.55 24.11v3.32l-1.42-.13v-3.48c0-.55.32-.94.71-.86a1.15 1.15 0 0 1 .71 1.15zM19.13 49.8l1.42.15v43.29c0 .55-.32 1-.71 1s-.71-.45-.71-1z" fill="#008187" opacity=".5"/><path fill="#2aad3a" opacity=".5" d="M20.55 27.43v22.52l-1.42-.15V27.3l1.42.13z"/><path d="M74 25.34a1.16 1.16 0 0 1 .79.41l-.34.27a2.48 2.48 0 0 1-1.74.51l-54.39-4.85-.73-.07V21a1.17 1.17 0 0 1 .54-1l6.31-4a1.15 1.15 0 0 1 .67-.18L80.26 18a1.13 1.13 0 0 1 .95.56l-55.75-2.4a.67.67 0 0 0-.4.11l-6.2 4.18 1 .07z" fill="#3bf463"/></g></g></svg>