<svg xmlns="http://www.w3.org/2000/svg" viewBox="0 0 100 100"><defs><style>.cls-1{fill:#fff}.cls-2{fill:#aaa}.cls-3,.cls-4{fill:#fffcc7;fill-rule:evenodd}.cls-4{fill:#0499bc}.cls-5{fill:#f2cf00}.cls-6{fill:#0e6ba5}.cls-7{fill:#c1baac}.cls-8{fill:#cc8d00}.cls-9{fill:#c6c6c6}.cls-10{fill:none}</style></defs><title>tool_stickers</title><g id="Tools"><g id="tool--stickers"><path class="cls-1" d="M91.62 19.51v61A11.12 11.12 0 0 1 80.5 91.63h-61a10.9 10.9 0 0 1-5-1.18 11.13 11.13 0 0 1-6.12-9.95v-61A11.12 11.12 0 0 1 19.5 8.38h61a11.12 11.12 0 0 1 11.12 11.13z"/><path class="cls-2" d="M54.27 18.34l-.18.2-.33.32-36 36-.39.39c.13 1 .32 2.08.54 3.1a33 33 0 1 0 36.39-40zm-1.91 13.74c0 .12-.06.25-.08.37.08-.36.15-.72.21-1.06-.04.22-.09.45-.13.69zm-.29 1.26l-.11.43zm-.48 1.79l-.09.31zM51 36.92l-.09.26zm-.72 1.82l-.1.23zm-.87 1.82l-.11.21zm-1 1.79l-.11.17zm-1.23 1.72l-.09.11z"/><path class="cls-3" d="M82.08 47a33 33 0 0 1-65.2 7.31c1 0 2 0 2.89-.06 7.76-.27 13.73-1.71 18.3-4.07l.93.71-5.56 18.42 15.77-11 15.79 11-5.59-18.39 15.31-11.61-19.21-.39-4-11.58c0-.29.05-.57.08-.85s0-.71 0-1v-3.57a25.62 25.62 0 0 1 .28-4.92 4.76 4.76 0 0 1 .89-2.19l.33-.32.18-.2A33 33 0 0 1 82.08 47z"/><path class="cls-4" d="M79.49 47.16a30.28 30.28 0 0 1-59.72 7.12c7.76-.27 13.73-1.71 18.3-4.07l.93.71-5.56 18.39 15.77-11 15.79 11-5.59-18.39 15.31-11.61-19.21-.39-4-11.58c0-.29.05-.57.08-.85s0-.71 0-1v-3.57a25.62 25.62 0 0 1 .28-4.92 30.27 30.27 0 0 1 27.62 30.16z"/><path class="cls-5" d="M59.41 50.92L65 69.31l-15.77-11-15.77 11L39 50.92l-.93-.71C46.8 45.7 50.39 37.79 51.36 28c0-.24.09-.47.13-.69l4 11.58 19.21.39z"/><path class="cls-6" d="M38.07 50.21c-4.57 2.36-10.54 3.8-18.3 4.07a30.63 30.63 0 0 1-.77-4.52 29.71 29.71 0 0 1 5.72-.65h.69l1.2-.11H27l1.15-.09c.86-.07 1.74-.17 2.65-.31l.65-.11a26.07 26.07 0 0 0 2.6-.59c.19 0 .39-.1.6-.17h.06z"/><path class="cls-7" d="M19.77 54.28c-.93 0-1.9.06-2.89.06-.22-1-.41-2-.54-3.1l.39-.39A6.23 6.23 0 0 1 19 49.76a30.63 30.63 0 0 0 .77 4.52z"/><path class="cls-8" d="M51.36 28c-1 9.76-4.56 17.67-13.29 22.18l-3.34-2.53a25.62 25.62 0 0 0 10-6.06C48.72 37.61 50.54 32 51.36 28z"/><path class="cls-9" d="M51.87 17a25.62 25.62 0 0 0-.23 4.85v4.57c0 .31 0 .56-.08.85-.74 4-2.53 10-6.79 14.28a25.62 25.62 0 0 1-10 6.06h-.06c-.21.07-.41.12-.6.17a26.07 26.07 0 0 1-2.6.59l-.65.11c-.91.14-1.79.24-2.65.31L27 49h-.41l-1.16.07h-.69a29.71 29.71 0 0 0-5.72.65 6.23 6.23 0 0 0-2.32 1.09l36-36a4.76 4.76 0 0 0-.83 2.19z"/><path class="cls-10" d="M16.33 51.24l.39-.39m36.55-36.56l-.51.52"/></g></g></svg>