<svg xmlns="http://www.w3.org/2000/svg" viewBox="0 0 100 100"><defs><style>.cls-1{fill:#7e3ca5}.cls-2{fill:#fff}.cls-3{fill:#3d3b31}.cls-4{fill:#ffc627}.cls-5{fill:#5e5a4d}.cls-6{fill:#21201a}</style></defs><title>tool_select</title><g id="Tools"><g id="tool--select"><circle class="cls-1" cx="48.5" cy="50" r="9.17"/><path class="cls-2" d="M91.62 19.51v61A11.12 11.12 0 0 1 80.5 91.63h-61a10.9 10.9 0 0 1-5-1.18 11.13 11.13 0 0 1-6.12-9.95v-61A11.12 11.12 0 0 1 19.5 8.38h61a11.12 11.12 0 0 1 11.12 11.13z"/><path class="cls-3" d="M57 76.47a1 1 0 0 1-.85-.53l-8.49-17.06-10.19 12a1 1 0 0 1-1.67-.56l-3.36-52a1 1 0 0 1 1.56-.84l39.6 33.9A1 1 0 0 1 73 53l-15.63 1 8.53 17.09a1 1 0 0 1-.42 1.27l-8 4a1 1 0 0 1-.48.11z"/><path class="cls-4" d="M33.39 18.2L73 52.1l-17.12 1.06 9.17 18.36-8 4-9.18-18.35-11.13 13.05-3.36-52m0-1.9a1.9 1.9 0 0 0-1.9 2l3.36 52a1.9 1.9 0 0 0 3.34 1.11l9.26-10.87 7.89 15.79a1.9 1.9 0 0 0 2.55.85l8-4a1.9 1.9 0 0 0 .85-2.55l-7.87-15.77L73.11 54a1.9 1.9 0 0 0 1.12-3.34l-39.6-33.9a1.9 1.9 0 0 0-1.24-.46z"/><path class="cls-5" d="M33.59 21.37l35.88 30.95 3.52-.22-39.6-33.9.2 3.17z"/><path class="cls-6" d="M33.39 18.2l2.34 5.01 3.37 44.24-2.36 2.77-3.35-52.02z"/></g></g></svg>