<svg xmlns="http://www.w3.org/2000/svg" viewBox="0 0 100 100"><defs><style>.cls-1{fill:#fff}.cls-2{fill:#e0449a}.cls-3{fill:#c43583}.cls-4{fill:#f26940}.cls-5{fill:#e2573b}.cls-6{fill:#ffcf06}</style></defs><title>tool_shapes</title><g id="Tools"><g id="tool--shapes"><path class="cls-1" d="M91.62 19.51v61A11.12 11.12 0 0 1 80.5 91.63h-61a10.9 10.9 0 0 1-5-1.18 11.13 11.13 0 0 1-6.12-9.95v-61A11.12 11.12 0 0 1 19.5 8.38h61a11.12 11.12 0 0 1 11.12 11.13z"/><path class="cls-2" d="M33.32 49.64h30.65v30.65H33.32z"/><path class="cls-3" d="M64 49.64v13.89c-.55.05-1.11.08-1.68.08a17.87 17.87 0 0 1-4.57-.61l-.88-.25a18 18 0 0 1-12.11-13.11z"/><path class="cls-3" d="M57.79 68.11l-14.34-7.54-10.13 5.33V49.64h24.29l-2.56 2.5 1.82 10.64.92 5.33z"/><path class="cls-4" d="M78 43.37a18 18 0 1 1-18-18 18 18 0 0 1 18 18z"/><path class="cls-5" d="M53.79 50.87l1.7 9.9a18 18 0 0 1-9-29.27l2.83 5.74 16 2.32z"/><path class="cls-6" d="M39.2 56.31l-14.34 7.54 2.74-15.97L16 36.57l16.03-2.33 7.17-14.53 7.17 14.53 16.03 2.33-11.6 11.31 2.74 15.97-14.34-7.54z"/></g></g></svg>