<svg xmlns="http://www.w3.org/2000/svg" viewBox="0 0 100 100"><defs><style>.cls-1,.cls-2{fill:none}.cls-1{stroke:#00aaa1;stroke-miterlimit:10;stroke-width:2px}.cls-3{clip-path:url(#clip-path)}.cls-4{fill:#00aaa1}.cls-5{fill:#007f7f}.cls-6{fill:#fff}.cls-7{fill:#e23720}.cls-8{fill:#c11f1f}.cls-9{fill:#ff5831}.cls-10{clip-path:url(#clip-path-2)}.cls-11{fill:#229947}.cls-12{fill:#0f844f}.cls-13{fill:#4fc64f}</style><clipPath id="clip-path"><path class="cls-1" d="M221.62 19.51v61a11.12 11.12 0 0 1-11.12 11.12h-61a10.9 10.9 0 0 1-5-1.18 11.13 11.13 0 0 1-6.15-9.95v-61A11.12 11.12 0 0 1 149.5 8.38h61a11.12 11.12 0 0 1 11.12 11.13z"/></clipPath><clipPath id="clip-path-2"><path class="cls-2" d="M91.62-110.49v61A11.12 11.12 0 0 1 80.5-38.37h-61a10.9 10.9 0 0 1-5-1.18 11 11 0 0 1-5-5.11 11.09 11.09 0 0 1-1.12-4.84v-61a11.12 11.12 0 0 1 11.12-11.12h61a11.12 11.12 0 0 1 11.12 11.13z"/></clipPath></defs><title>tool_splat</title><g id="Decorations"><g id="decoration--solid-brush"><g id="decoration--solid-brush-2" data-name="decoration--solid-brush"><g class="cls-3"><path class="cls-4" d="M81.84 149.76a2.52 2.52 0 0 1-1.88-.82l-.1-.12a2.6 2.6 0 0 1 .09-3.26l1.41-1.7c13.72-16.48 50.18-60.27 68.53-75.92l.35-.3 8.14 8.13.94.95h.29V77l1.25 1.24-.31.35c-12 13.73-37.88 36.31-58.68 54.45-6.77 5.91-13.17 11.49-18.24 16a2.68 2.68 0 0 1-1.79.72z"/><path class="cls-5" d="M150.21 68.32l7.81 7.8 1.07 1.08 1.06 1.05c-15.93 18.23-56.45 52.14-76.88 70.43a2.18 2.18 0 0 1-1.45.55 2 2 0 0 1-1.56-.72 2.09 2.09 0 0 1 .08-2.63c12.59-15.12 50.9-61.37 69.89-77.56m.05-1.36l-.7.6c-18.39 15.68-54.87 59.5-68.6 76l-1.4 1.68a3.1 3.1 0 0 0-.1 3.89l.06.07a3 3 0 0 0 2.28 1 3.17 3.17 0 0 0 2.12-.81c5.07-4.54 11.47-10.12 18.24-16 20.81-18.15 46.7-40.74 58.73-54.49l.62-.71-.67-.66-.77-.76v-.58h-.59l-.78-.79-7.82-7.81-.65-.65z"/></g><path class="cls-1" d="M221.62 19.51v61a11.12 11.12 0 0 1-11.12 11.12h-61a10.9 10.9 0 0 1-5-1.18 11.13 11.13 0 0 1-6.15-9.95v-61A11.12 11.12 0 0 1 149.5 8.38h61a11.12 11.12 0 0 1 11.12 11.13z"/></g></g></g><g id="Tools"><g id="tool--splat"><path class="cls-6" d="M91.62 19.51v61A11.12 11.12 0 0 1 80.5 91.63h-61a10.9 10.9 0 0 1-5-1.18 11.13 11.13 0 0 1-6.12-9.95v-61A11.12 11.12 0 0 1 19.5 8.38h61a11.12 11.12 0 0 1 11.12 11.13z"/><path class="cls-7" d="M73.94 42.27c0 14.59-14 33-23.93 38.32-6.68-3.71-14.6-12.38-19.45-22-2.75-5.4-4.5-11.09-4.5-16.35 0-14.6 10.72-26.42 23.94-26.42 10.42 0 19.29 7.35 22.57 17.63a28.74 28.74 0 0 1 1.37 8.82z"/><path class="cls-8" d="M49.99 80.58l-3.57 3.58h7.26l-3.69-3.58z"/><circle class="cls-8" cx="50" cy="80.58" r="1.61"/><circle class="cls-9" cx="44.32" cy="33.11" r="9.32"/><path class="cls-8" d="M73.94 42.27c0 14.59-14 33-23.93 38.32-6.68-3.71-14.6-12.38-19.45-22 16.22 11.12 43.38-2.21 42-25.15a28.74 28.74 0 0 1 1.38 8.83z"/></g><g id="tool--translucent-brush"><g class="cls-10" id="tool--translucent-brush-2" data-name="tool--translucent-brush"><path class="cls-11" d="M26.6-48.56l-84.46 78.19a2.19 2.19 0 0 1-1.55.6 2.11 2.11 0 0 1-.75-.15 2.14 2.14 0 0 1-.79-.5A2.22 2.22 0 0 1-61 26.5l77.84-84.82z"/><path class="cls-12" d="M26.6-48.56l-84.46 78.19a2.19 2.19 0 0 1-1.55.6 2.11 2.11 0 0 1-.75-.15l83.51-81 2 1.06z"/><path class="cls-13" d="M16.85-55.07l1.92 1.92-76.21 78.42-.46-.47 74.75-79.87z"/></g></g></g></svg>