<svg xmlns="http://www.w3.org/2000/svg" viewBox="0 0 100 100"><defs><style>.cls-1{fill:#fff}.cls-2{fill:#426d84}.cls-3{fill:#94c4bb}</style></defs><title>tool_text</title><g id="Tools"><g id="tool-text"><path class="cls-1" d="M91.62 19.51v61A11.12 11.12 0 0 1 80.5 91.63h-61a10.9 10.9 0 0 1-5-1.18 11.13 11.13 0 0 1-6.12-9.95v-61A11.12 11.12 0 0 1 19.5 8.38h61a11.12 11.12 0 0 1 11.12 11.13z"/><path class="cls-2" d="M30.93 30.16a5.65 5.65 0 0 1 5.14-4 5.43 5.43 0 0 1 5.14 4l9.41 26.11a5.59 5.59 0 0 1 .38 1.78 3.2 3.2 0 0 1-3.31 3.17 3.36 3.36 0 0 1-3.5-2.5l-1.44-4.51H29.4L28 58.68a3.33 3.33 0 0 1-3.46 2.54 3.44 3.44 0 0 1-3.55-3.36 4.11 4.11 0 0 1 .34-1.58zm.53 17.43h9.12l-4.46-13.92H36zm48.1 9.12c0 1.78 0 4.51-3.31 4.51-2 0-2.83-1.1-3.31-2.93a8.27 8.27 0 0 1-6.58 3.22c-6.48 0-11.42-5.52-11.42-13.3 0-7.58 5.09-13.39 11.42-13.39A7.9 7.9 0 0 1 72.93 38a3.28 3.28 0 0 1 3.31-2.88c3.31 0 3.31 2.74 3.31 4.51zm-12.24-1.54c3.6 0 5.33-3.65 5.33-7s-1.65-7.02-5.33-7.02-5.47 3.74-5.47 7.06 1.72 6.96 5.47 6.96z"/><path class="cls-3" d="M28.93 28.16a5.65 5.65 0 0 1 5.14-4 5.43 5.43 0 0 1 5.14 4l9.41 26.11a5.59 5.59 0 0 1 .38 1.78 3.2 3.2 0 0 1-3.31 3.17 3.36 3.36 0 0 1-3.5-2.5l-1.44-4.51H27.4L26 56.68a3.33 3.33 0 0 1-3.46 2.54 3.44 3.44 0 0 1-3.55-3.36 4.11 4.11 0 0 1 .34-1.58zm.53 17.43h9.12l-4.46-13.92H34zm48.1 9.12c0 1.78 0 4.51-3.31 4.51-2 0-2.83-1.1-3.31-2.93a8.27 8.27 0 0 1-6.58 3.22c-6.48 0-11.42-5.52-11.42-13.3 0-7.58 5.09-13.39 11.42-13.39A7.9 7.9 0 0 1 70.93 36a3.28 3.28 0 0 1 3.31-2.88c3.31 0 3.31 2.74 3.31 4.51zm-12.24-1.54c3.6 0 5.33-3.65 5.33-7s-1.65-7.02-5.33-7.02-5.47 3.74-5.47 7.06 1.72 6.96 5.47 6.96z"/><rect class="cls-2" x="20.95" y="68.11" width="58.61" height="6.77" rx="3.38" ry="3.38"/><rect class="cls-3" x="18.95" y="66.11" width="58.61" height="6.77" rx="3.38" ry="3.38"/></g></g></svg>